<svg width="91" height="56" viewBox="0 0 91 56" fill="none" xmlns="http://www.w3.org/2000/svg">
<g clip-path="url(#clip0_114_624)">
<path d="M41.3399 10.1599C40.963 9.23251 40.3026 8.44789 39.4532 7.91811C38.6038 7.38833 37.6086 7.14047 36.6099 7.20994C34.6999 7.20994 30.9099 7.70994 29.6799 9.27994C29.5332 9.46843 29.4399 9.69296 29.4099 9.92994C27.2399 11.9799 26.2599 19.7099 26.0899 21.3099C25.9199 22.9099 25.8999 23.9999 27.6699 23.9999C30.8499 24.0699 34.8499 22.1999 37.7299 20.9999C39.7899 20.1699 41.7299 19.4299 42.3699 17.1499C43.0099 14.8699 42.2799 12.1699 41.3399 10.1599Z" fill="#FBB03B"/>
<path d="M56.3698 9.11994C55.5498 7.11994 54.8898 5.61994 52.5398 5.52994C50.3398 5.43994 46.0398 5.93994 44.7498 7.93994C44.7191 7.89921 44.6775 7.86801 44.6298 7.84994L44.3098 7.72994C44.1829 7.69698 44.0486 7.70651 43.9276 7.75708C43.8066 7.80765 43.7055 7.89647 43.6398 8.00994C43.0298 9.17994 43.3898 10.3099 43.6398 11.5899C44.0098 13.8899 44.4898 16.1799 44.9298 18.4699C45.0099 18.7016 45.1722 18.8958 45.3861 19.0157C45.6 19.1355 45.8504 19.1726 46.0898 19.1199C49.4698 18.1999 53.4998 17.1999 56.4998 15.2999C58.8998 13.7499 57.2298 11.1999 56.3698 9.11994Z" fill="#FBB03B"/>
<path d="M70.7002 11.0501C70.1507 9.71969 69.4314 8.46595 68.5602 7.3201C67.7302 6.1101 67.1202 4.8501 65.8302 4.1101C65.7183 4.04526 65.5853 4.02728 65.4602 4.0601C63.8602 3.1701 61.2902 3.7601 59.6602 4.2401C58.0302 4.7201 57.4902 5.3701 58.0602 7.0001C58.5802 8.36643 59.1779 9.70194 59.8502 11.0001C60.2702 11.8901 60.5202 12.6801 61.5402 12.9101C62.6285 12.9915 63.7228 12.9174 64.7902 12.6901L69.8602 12.2301C70.0019 12.2299 70.1414 12.1958 70.2673 12.1308C70.3931 12.0658 70.5017 11.9716 70.5838 11.8562C70.666 11.7408 70.7194 11.6075 70.7396 11.4673C70.7599 11.3271 70.7464 11.184 70.7002 11.0501Z" fill="#FBB03B"/>
<path d="M77.5201 27.55C77.1252 27.4593 76.7144 27.4637 76.3215 27.5628C75.9286 27.6619 75.5648 27.8529 75.2601 28.12C75.0797 28.2977 74.9249 28.4996 74.8001 28.72C74.6236 28.8513 74.4626 29.0023 74.3201 29.17C73.9089 29.6921 73.6723 30.3302 73.6436 30.9942C73.6149 31.6581 73.7956 32.3143 74.1601 32.87C76.0201 35.87 80.5001 34.09 80.6101 30.8C80.6701 29 79.2501 27.27 77.5201 27.55Z" fill="#333333"/>
<path d="M87.8898 18.8499C87.4798 16.8499 87.4198 14.6199 86.8098 12.6699C85.3698 8.06989 82.3598 7.29989 77.8998 8.44989C75.0598 9.17989 71.8198 9.31989 69.5898 6.57989C69.0898 5.96989 68.9398 4.31989 68.4798 3.57989C67.5976 2.03194 66.1722 0.86665 64.4798 0.30989C61.9698 -0.45011 59.1398 0.46989 56.6798 0.98989C51.9998 1.99989 47.4098 2.99989 42.7998 3.99989C37.7998 5.08989 32.3598 5.44989 28.9698 9.29989L28.6398 9.42989C28.4949 9.48817 28.3768 9.5982 28.3084 9.73863C28.24 9.87906 28.2263 10.0399 28.2698 10.1899C28.086 10.4406 27.9158 10.701 27.7598 10.9699C26.2414 13.4929 25.1628 16.2556 24.5698 19.1399C24.2698 20.7799 24.6498 22.4999 23.6698 23.8599C22.4998 25.4999 19.6698 25.7599 17.7798 26.3999C12.6698 28.1299 5.47976 30.0799 2.15976 34.7399C0.0397625 37.7399 -0.0502379 42.2899 2.58976 44.7399C2.14573 44.9184 1.72846 45.1573 1.34976 45.4499C1.0622 45.6237 0.821029 45.8646 0.646878 46.1519C0.472726 46.4393 0.37078 46.7645 0.349762 47.0999C0.111566 48.9201 -0.00535886 50.7542 -0.000237773 52.5899C-0.0102667 52.9018 0.0820401 53.2085 0.262597 53.4631C0.443153 53.7177 0.702044 53.9062 0.999762 53.9999C2.99976 54.5499 5.34976 53.5399 7.29976 53.0799C10.0372 52.5341 12.7311 51.7888 15.3598 50.8499C15.5103 50.8001 15.6469 50.7151 15.7582 50.6021C15.8695 50.4891 15.9523 50.3512 15.9998 50.1999L16.0598 50.3099C18.1898 53.9199 22.9098 56.3099 26.9798 54.6799C30.5398 53.2799 32.6198 49.5599 32.9798 45.6799C33.255 45.9087 33.5919 46.0508 33.9479 46.0882C34.3039 46.1256 34.663 46.0566 34.9798 45.8899C40.1898 45.3099 45.3198 43.4499 50.3398 42.0299C51.8598 41.5999 63.7298 38.6699 68.4398 36.9799C68.4998 37.1499 68.5598 37.3199 68.6298 37.4899C70.4998 41.9999 75.5598 42.3999 79.8098 41.1699C81.5723 40.6934 83.1362 39.6659 84.2733 38.2374C85.4103 36.8089 86.0608 35.0543 86.1298 33.2299C86.1767 32.8415 86.2034 32.451 86.2098 32.0599C86.6818 32.1781 87.1814 32.1046 87.5994 31.8553C88.0173 31.6061 88.3195 31.2014 88.4398 30.7299H88.6098C88.9301 30.8093 89.2673 30.7865 89.574 30.6645C89.8807 30.5426 90.1415 30.3276 90.3198 30.0499C91.0898 28.8299 90.9898 28.2599 90.7498 26.8599C90.2798 24.3999 88.4398 21.5799 87.8898 18.8499ZM67.6098 7.22989C68.281 8.66684 69.2409 9.95016 70.4298 10.9999C68.2698 11.8699 65.4298 11.8499 63.3798 12.1699C62.4998 12.3099 61.6398 12.6499 60.8098 12.1699C59.9798 11.6899 59.8698 10.9199 59.5498 9.99989C58.9998 8.41989 58.4698 6.82989 57.7998 5.27989C58.7998 4.64989 60.4498 4.76989 61.5898 4.65989C62.5209 4.47182 63.4753 4.42797 64.4198 4.52989C64.5042 4.545 64.5912 4.53032 64.666 4.48837C64.7408 4.44642 64.7987 4.3798 64.8298 4.29989C65.9973 5.0159 66.956 6.02636 67.6098 7.22989ZM28.5298 12.3999C28.9792 11.5104 29.5703 10.6998 30.2798 9.99989C32.337 8.98318 34.5458 8.3077 36.8198 7.99989C40.3598 7.83989 40.4098 9.50989 41.2598 12.1499C41.8498 13.9999 42.4798 15.5399 41.6198 17.3299C40.2798 20.1299 34.9998 21.0799 31.9998 21.9999C30.2298 22.5799 28.3898 22.9999 26.6298 23.6599C26.6798 19.8999 26.8598 15.7499 28.5298 12.3999ZM11.7098 29.5999C16.1698 27.9099 21.1598 27.1699 25.7998 26.0999C25.9907 26.051 26.1657 25.9534 26.3076 25.8167C26.4496 25.68 26.5537 25.5088 26.6098 25.3199C30.8798 24.9099 35.3298 23.0299 39.1498 21.5399C42.1498 20.3699 43.4798 19.6199 42.9898 16.3199C42.6798 14.2199 41.5398 8.31989 39.4398 7.08989C39.0235 6.86622 38.5619 6.73973 38.0898 6.71989C39.4598 6.49989 40.8498 6.31989 42.2098 6.07989C45.7898 5.43989 49.3698 4.77989 52.9398 4.12989C56.2598 3.52989 59.7898 2.73989 62.7598 3.46989L61.9998 3.61989C60.3698 3.85989 58.5298 3.87989 57.3098 5.10989C57.281 5.14126 57.265 5.1823 57.265 5.22489C57.265 5.26748 57.281 5.30852 57.3098 5.33989C57.7398 7.47989 58.1798 10.9299 59.3098 12.7899C60.1998 14.2099 61.8198 13.7899 63.2398 13.5999C65.2398 13.3299 70.2398 13.4899 72.4998 11.7799C73.4088 11.9056 74.3308 11.9056 75.2398 11.7799C76.1198 11.6699 76.9498 11.3799 77.8098 11.1999C81.3698 10.4499 83.4998 11.5099 85.5798 14.8099C86.0298 15.5099 86.9198 19.3599 87.5798 22.6799C87.1649 22.8258 86.7577 22.9927 86.3598 23.1799C86.0798 23.3099 85.7998 23.4399 85.5298 23.5899C82.7298 19.7999 78.3498 17.5399 73.1898 19.1699C71.8488 19.5997 70.6067 20.2922 69.5361 21.2069C68.4654 22.1216 67.5876 23.2404 66.9537 24.4978C66.3199 25.7553 65.9427 27.1264 65.8441 28.5312C65.7456 29.9359 65.9277 31.3462 66.3798 32.6799C55.9998 34.9999 45.5698 36.9999 35.5098 40.3899C34.8498 37.3899 33.6698 34.3899 31.1498 32.5899C27.8298 30.2099 23.1498 30.3499 19.5298 31.8699C17.7723 32.5893 16.1927 33.683 14.9009 35.075C13.6091 36.4669 12.6362 38.1237 12.0498 39.9299C11.813 40.6972 11.6423 41.4834 11.5398 42.2799C9.90976 42.7099 8.28976 43.1599 6.66976 43.6099C5.86976 43.8299 4.92976 44.0099 4.00976 44.2699C2.88976 37.7299 4.71976 32.2599 11.7098 29.5999ZM21.9998 35.3899C20.3649 36.0871 18.9731 37.2528 17.9998 38.7399C17.5446 38.9783 17.124 39.2778 16.7498 39.6299C17.6892 37.965 19.1264 36.6361 20.8598 35.8299C21.2315 35.6627 21.6121 35.5158 21.9998 35.3899ZM8.22976 49.8799C6.93976 50.0999 5.65976 50.3299 4.37976 50.5799L2.72976 50.8999C1.47976 51.5099 1.12976 51.0599 1.66976 49.5399C1.66976 47.9399 1.15976 47.3899 2.86976 47.0099C3.98976 46.7499 5.14976 46.6199 6.27976 46.3799C8.0131 46.0199 9.7431 45.6399 11.4698 45.2399C11.5441 46.6924 12.1325 48.0712 13.1298 49.1299C11.4898 49.2999 9.85976 49.6099 8.22976 49.8799ZM23.2298 52.3599L22.9998 52.2999C26.0798 52.2999 27.9998 50.0899 28.8498 47.5299C29.158 47.1401 29.4167 46.7135 29.6198 46.2599C31.1598 42.7999 29.6198 40.1799 27.0098 39.6399C26.5058 39.3409 25.9474 39.1454 25.3671 39.0647C24.7867 38.984 24.1961 39.0198 23.6298 39.1699C20.6898 39.8099 19.9398 41.7099 20.3098 43.6199C20.1063 44.266 20.0516 44.9497 20.1498 45.6199C20.8398 50.4299 25.6098 50.8699 28.3398 48.1399C27.5297 49.731 26.1247 50.9384 24.4298 51.4999C23.5863 51.7656 22.6874 51.8029 21.8249 51.6079C20.9623 51.4129 20.1669 50.9926 19.5198 50.3899C18.6273 49.5702 17.9566 48.5382 17.5698 47.3899C16.6698 44.7199 17.4798 42.6399 18.1698 40.2199C20.5998 36.0999 25.9998 33.8399 29.9998 37.9999C34.7598 42.9199 31.1498 54.5999 23.1998 52.3599H23.2298ZM52.1698 39.7599C46.9198 41.2099 41.3298 42.3999 36.2298 44.4599C36.26 44.1821 36.2115 43.9014 36.0898 43.6499C35.9498 42.6499 35.7898 41.5399 35.5598 40.4599C45.761 37.4612 56.1076 34.9813 66.5598 33.0299C66.7493 33.5895 66.9799 34.1343 67.2498 34.6599C67.3955 34.9152 67.6306 35.1076 67.9098 35.1999C67.9142 35.2264 67.9142 35.2534 67.9098 35.2799C62.6698 35.9999 56.9998 38.4099 52.1398 39.7599H52.1698ZM77.6698 38.0999C75.9298 38.4199 73.2698 38.4999 72.0998 36.7599C71.1798 35.3999 70.9298 32.5099 70.8598 30.9599C70.6498 26.6399 72.8598 24.1699 76.7098 23.5699C79.2698 24.9999 81.9998 26.3999 83.0498 29.4299C84.4598 33.5299 81.7798 37.3599 77.6398 38.0999H77.6698ZM88.4298 27.7999C88.2127 27.7804 87.9945 27.822 87.7998 27.9199C87.3254 26.5842 86.6836 25.3141 85.8898 24.1399C86.1398 24.0599 86.3898 23.9799 86.6398 23.8799C87.0136 23.7557 87.3808 23.6122 87.7398 23.4499C88.0814 24.88 88.312 26.3343 88.4298 27.7999Z" fill="#333333"/>
<path d="M45.1102 19.9999C49.2538 19.1957 53.2391 17.7232 56.9102 15.6399C59.6102 14.1099 58.3602 12.3399 57.3802 9.8199C56.6102 7.8199 56.1202 5.0699 53.6502 4.8199C51.9812 4.81521 50.3194 5.03724 48.7102 5.4799C46.7102 5.8699 44.4102 6.1999 42.6502 7.3199C42.5392 7.38435 42.4522 7.48325 42.4025 7.60159C42.3528 7.71994 42.343 7.85127 42.3747 7.97566C42.4063 8.10006 42.4777 8.21073 42.578 8.2909C42.6782 8.37107 42.8019 8.41636 42.9302 8.4199H43.0002C42.9631 12.2182 43.4647 16.0025 44.4902 19.6599C44.5295 19.7857 44.6161 19.8914 44.7317 19.9548C44.8473 20.0182 44.9829 20.0343 45.1102 19.9999ZM44.1102 12.7699C43.9002 11.2999 43.8102 9.8199 43.6602 8.3499C46.5302 8.0699 49.3002 6.5299 52.2002 6.5399C52.9639 6.4681 53.7303 6.64558 54.3846 7.04578C55.039 7.44598 55.5462 8.04736 55.8302 8.7599C56.1338 9.49174 56.3975 10.2395 56.6202 10.9999C57.5102 13.3999 57.1402 14.3099 54.9102 15.4399C53.1802 16.3099 46.2902 20.0599 45.0602 17.9099C44.3102 16.5899 44.2802 14.2599 44.0702 12.7799L44.1102 12.7699Z" fill="#333333"/>
<path d="M77.5999 16.0801C78.4925 16.1896 79.3301 16.57 79.9999 17.1701C80.1599 17.2801 80.2999 17.0701 80.2399 16.9301C79.992 16.4697 79.6171 16.0901 79.1597 15.8366C78.7023 15.5831 78.1818 15.4663 77.6599 15.5001C77.583 15.4921 77.5061 15.5151 77.4461 15.5638C77.3861 15.6126 77.3479 15.6832 77.3399 15.7601C77.332 15.837 77.3549 15.9139 77.4037 15.9739C77.4524 16.0339 77.523 16.0721 77.5999 16.0801Z" fill="#333333"/>
<path d="M81.2599 16C81.4099 16 81.4999 15.8 81.3899 15.7C80.8446 15.3107 80.2448 15.004 79.6099 14.79C79.3399 14.68 79.1399 15.14 79.4099 15.27C79.985 15.6077 80.6091 15.854 81.2599 16Z" fill="#333333"/>
<path d="M50.25 32.0001C50.63 32.7789 51.2412 33.4215 52 33.8401C52.0588 33.8762 52.128 33.8915 52.1965 33.8838C52.2651 33.8761 52.3291 33.8457 52.3785 33.7975C52.4278 33.7493 52.4597 33.686 52.469 33.6177C52.4783 33.5493 52.4646 33.4798 52.43 33.4201C52.0387 32.6477 51.4212 32.0128 50.66 31.6001C50.6046 31.5589 50.5364 31.5388 50.4675 31.5434C50.3986 31.548 50.3337 31.577 50.2843 31.6251C50.2349 31.6733 50.2043 31.7376 50.198 31.8063C50.1917 31.875 50.2101 31.9438 50.25 32.0001Z" fill="#333333"/>
<path d="M51.89 31.2501C52.2076 31.8273 52.5792 32.3731 53 32.8801C53.23 33.1501 53.6 32.8201 53.46 32.5301C53.172 31.9823 52.8374 31.4604 52.46 30.9701C52.18 30.6801 51.7 30.9301 51.89 31.2501Z" fill="#333333"/>
<path d="M8.69992 38.64C8.89992 38.77 9.16992 38.51 9.03992 38.31C8.6693 37.8316 8.25043 37.3926 7.78992 37C7.74046 36.9601 7.6781 36.9397 7.61461 36.9427C7.55113 36.9456 7.49093 36.9717 7.44539 37.016C7.39984 37.0603 7.3721 37.1198 7.36741 37.1832C7.36272 37.2466 7.3814 37.3095 7.41992 37.36C7.80156 37.8294 8.23049 38.2584 8.69992 38.64Z" fill="#333333"/>
<path d="M10.1101 36.32C10.2901 36.43 10.4301 36.21 10.3201 36.06C10.0821 35.7972 9.82109 35.5562 9.54013 35.34C9.35013 35.18 9.07013 35.45 9.26013 35.61C9.52196 35.8712 9.80641 36.1088 10.1101 36.32Z" fill="#333333"/>
</g>
<defs>
<clipPath id="clip0_114_624">
<rect width="90.89" height="55.2" fill="white"/>
</clipPath>
</defs>
</svg>
