<svg width="40" height="40" viewBox="0 0 40 40" fill="none" xmlns="http://www.w3.org/2000/svg">
<circle cx="20" cy="20" r="19.5" fill="white" stroke="#DFE0DF"/>
<path d="M25.2798 19.2C25.0898 19.2 24.8997 19.13 24.7497 18.98C24.4597 18.69 24.4597 18.21 24.7497 17.92L27.9397 14.73L24.7497 11.5399C24.4597 11.2499 24.4597 10.77 24.7497 10.48C25.0397 10.19 25.5197 10.19 25.8097 10.48L29.5298 14.2C29.6698 14.34 29.7497 14.53 29.7497 14.73C29.7497 14.93 29.6698 15.12 29.5298 15.26L25.8097 18.98C25.6597 19.12 25.4698 19.2 25.2798 19.2Z" fill="#A37E47"/>
<path d="M29 15.48H11C10.59 15.48 10.25 15.14 10.25 14.73C10.25 14.32 10.59 13.98 11 13.98H29C29.41 13.98 29.75 14.32 29.75 14.73C29.75 15.14 29.41 15.48 29 15.48Z" fill="#A37E47"/>
<path d="M14.72 29.75C14.53 29.75 14.34 29.68 14.19 29.53L10.47 25.81C10.33 25.67 10.25 25.48 10.25 25.28C10.25 25.08 10.33 24.89 10.47 24.75L14.19 21.03C14.48 20.74 14.96 20.74 15.25 21.03C15.54 21.32 15.54 21.8 15.25 22.09L12.06 25.28L15.25 28.4699C15.54 28.7599 15.54 29.24 15.25 29.53C15.11 29.68 14.92 29.75 14.72 29.75Z" fill="#A37E47"/>
<path d="M29 26.02H11C10.59 26.02 10.25 25.68 10.25 25.27C10.25 24.86 10.59 24.52 11 24.52H29C29.41 24.52 29.75 24.86 29.75 25.27C29.75 25.68 29.41 26.02 29 26.02Z" fill="#A37E47"/>
</svg>
