<svg width="191" height="161" viewBox="0 0 191 161" fill="none" xmlns="http://www.w3.org/2000/svg">
<path opacity="0.07" d="M191 77.6608C191 117.911 143.209 161 95.417 161C47.6255 161 0 117.911 0 77.6608C0 37.4108 47.6255 0 95.417 0C143.209 0 191 37.4108 191 77.6608Z" fill="#A37E47"/>
<path d="M131.59 27.3794C121.782 27.3794 113.802 35.3592 113.802 45.1673C113.802 53.6751 126.407 70.8943 129.36 74.8135C129.359 76.0794 129.36 77.3224 129.329 78.4633C129.297 79.69 130.265 80.7129 131.494 80.7454C131.514 80.7454 131.533 80.7454 131.555 80.7454C132.754 80.7454 133.744 79.7878 133.776 78.5806C133.807 77.41 133.806 76.1321 133.807 74.8301C136.741 70.9379 149.378 53.6851 149.378 45.1673C149.378 35.3592 141.398 27.3794 131.59 27.3794ZM131.59 70.3511C126.702 63.6264 118.249 50.8283 118.249 45.1673C118.249 37.8106 124.233 31.8263 131.59 31.8263C138.946 31.8263 144.931 37.8106 144.931 45.1673C144.931 50.8283 136.477 63.6262 131.59 70.3511Z" fill="#A37E47"/>
<path d="M131.59 40.7202C129.138 40.7202 127.143 42.7157 127.143 45.1671C127.143 47.6185 129.138 49.6141 131.59 49.6141C134.041 49.6141 136.037 47.6188 136.037 45.1671C136.037 42.7157 134.041 40.7202 131.59 40.7202Z" fill="#A37E47"/>
<path d="M69.3317 76.2964C61.975 76.2964 55.9907 82.2806 55.9907 89.6374C55.9907 96.9941 61.975 102.978 69.3317 102.978C76.6884 102.978 82.6727 96.9941 82.6727 89.6374C82.6727 82.2806 76.6884 76.2964 69.3317 76.2964ZM69.3317 98.5312C64.4266 98.5312 60.4376 94.5425 60.4376 89.6372C60.4376 84.7318 64.4266 80.7433 69.3317 80.7433C74.2368 80.7433 78.2258 84.7321 78.2258 89.6374C78.2258 94.5427 74.2368 98.5312 69.3317 98.5312Z" fill="#A37E47"/>
<path d="M103.012 107.517C101.861 107.069 100.58 107.641 100.135 108.787C99.1386 111.362 97.8922 114.365 96.2115 117.116C95.5709 118.165 95.9032 119.533 96.9498 120.174C97.3125 120.395 97.7119 120.5 98.1072 120.5C98.8563 120.5 99.588 120.122 100.007 119.436C101.87 116.383 103.214 113.152 104.283 110.394C104.726 109.249 104.157 107.962 103.012 107.517Z" fill="#A37E47"/>
<path d="M90.4744 123.743C88.2465 125.509 85.7148 126.838 82.7312 127.808C81.5631 128.188 80.9246 129.443 81.3046 130.612C81.6108 131.55 82.4815 132.147 83.4195 132.147C83.6476 132.147 83.8798 132.112 84.1078 132.038C87.5538 130.918 90.6241 129.3 93.2364 127.231C94.1984 126.466 94.3612 125.068 93.5991 124.106C92.8303 123.146 91.4341 122.975 90.4744 123.743Z" fill="#A37E47"/>
<path d="M110.71 91.4635C107.04 93.5459 105.001 97.1611 103.785 99.6974C103.253 100.805 103.72 102.134 104.828 102.663C105.138 102.813 105.466 102.883 105.787 102.883C106.617 102.883 107.411 102.418 107.794 101.621C109.337 98.401 110.914 96.462 112.907 95.3284C113.973 94.7226 114.349 93.3654 113.741 92.2971C113.137 91.229 111.785 90.8533 110.71 91.4635Z" fill="#A37E47"/>
<path d="M130.765 85.9591C129.755 85.2752 128.367 85.5378 127.677 86.554C126.945 87.6355 125.447 89.1228 120.915 89.5289C119.692 89.6396 118.789 90.7187 118.9 91.9434C119.004 93.0986 119.975 93.967 121.113 93.967C121.18 93.967 121.247 93.965 121.315 93.9583C126.129 93.5262 129.414 91.9194 131.359 89.0465C132.048 88.0305 131.781 86.6474 130.765 85.9591Z" fill="#A37E47"/>
<path d="M74.6005 129.689C81.6164 122.207 96.0138 104.995 96.0138 89.6375C96.0138 74.6767 84.2927 62.9556 69.3319 62.9556C54.371 62.9556 42.6499 74.6767 42.6499 89.6375C42.6499 109.495 66.7783 132.529 67.8054 133.5C68.2331 133.906 68.7826 134.108 69.3319 134.108C70.9518 134.108 72.4912 134.051 73.9503 133.94C75.175 133.847 76.0935 132.781 76.0001 131.556C75.9334 130.68 75.3662 129.996 74.6005 129.689ZM69.3319 128.748C64.0793 123.39 47.0968 104.881 47.0968 89.6375C47.0968 77.1693 56.8639 67.4025 69.3319 67.4025C81.7999 67.4025 91.5669 77.1693 91.5669 89.6375C91.5669 104.881 74.5845 123.389 69.3319 128.748Z" fill="#A37E47"/>
</svg>
