<svg width="1440" height="928" viewBox="0 0 1440 928" fill="none" xmlns="http://www.w3.org/2000/svg">
<path d="M0 203.418L18.5 166.118C36.9 128.418 74 54.4185 111 48.7185C147.7 43.4185 185 107.418 222 118.118C258.5 128.418 295 86.4185 332 70.1185C369.2 54.4185 406 64.4185 443 54.1185C480 43.4185 517 11.4185 554 22.1185C590.8 32.4185 628 86.4185 665 86.1185C701.5 86.4185 738 32.4185 775 32.7185C812.3 32.4185 849 86.4185 886 96.7185C923.1 107.418 960 75.4185 997 59.4185C1033.8 43.4185 1071 43.4185 1108 70.1185C1144.6 96.4185 1182 150.418 1218 139.418C1255.4 128.418 1292 54.4184 1329 22.1185C1366.2 -9.58155 1403 0.418455 1422 6.11845L1440 11.4185V927.418H1421.5C1403.1 927.418 1366 927.418 1329 927.418C1292.3 927.418 1255 927.418 1218 927.418C1181.5 927.418 1145 927.418 1108 927.418C1070.8 927.418 1034 927.418 997 927.418C960 927.418 923 927.418 886 927.418C849.2 927.418 812 927.418 775 927.418C738.5 927.418 702 927.418 665 927.418C627.7 927.418 591 927.418 554 927.418C516.9 927.418 480 927.418 443 927.418C406.2 927.418 369 927.418 332 927.418C295.4 927.418 258 927.418 222 927.418C184.6 927.418 148 927.418 111 927.418C73.8 927.418 37 927.418 18 927.418H0V203.418Z" fill="url(#paint0_linear_115_625)"/>
<g clip-path="url(#clip0_115_625)">
<path d="M287.34 456.16C286.963 455.233 286.303 454.448 285.453 453.918C284.604 453.388 283.609 453.14 282.61 453.21C280.7 453.21 276.91 453.71 275.68 455.28C275.533 455.468 275.44 455.693 275.41 455.93C273.24 457.98 272.26 465.71 272.09 467.31C271.92 468.91 271.9 470 273.67 470C276.85 470.07 280.85 468.2 283.73 467C285.79 466.17 287.73 465.43 288.37 463.15C289.01 460.87 288.28 458.17 287.34 456.16Z" fill="#FBB03B"/>
<path d="M302.37 455.12C301.55 453.12 300.89 451.62 298.54 451.53C296.34 451.44 292.04 451.94 290.75 453.94C290.719 453.899 290.677 453.868 290.63 453.85L290.31 453.73C290.183 453.697 290.049 453.707 289.928 453.757C289.807 453.808 289.706 453.896 289.64 454.01C289.03 455.18 289.39 456.31 289.64 457.59C290.01 459.89 290.49 462.18 290.93 464.47C291.01 464.702 291.172 464.896 291.386 465.016C291.6 465.136 291.85 465.173 292.09 465.12C295.47 464.2 299.5 463.2 302.5 461.3C304.9 459.75 303.23 457.2 302.37 455.12Z" fill="#FBB03B"/>
<path d="M316.7 457.05C316.151 455.72 315.431 454.466 314.56 453.32C313.73 452.11 313.12 450.85 311.83 450.11C311.718 450.045 311.585 450.027 311.46 450.06C309.86 449.17 307.29 449.76 305.66 450.24C304.03 450.72 303.49 451.37 304.06 453C304.58 454.366 305.178 455.702 305.85 457C306.27 457.89 306.52 458.68 307.54 458.91C308.628 458.991 309.723 458.917 310.79 458.69L315.86 458.23C316.002 458.23 316.141 458.196 316.267 458.131C316.393 458.066 316.502 457.972 316.584 457.856C316.666 457.741 316.719 457.607 316.74 457.467C316.76 457.327 316.746 457.184 316.7 457.05V457.05Z" fill="#FBB03B"/>
<path d="M323.52 473.55C323.125 473.459 322.714 473.464 322.321 473.563C321.929 473.662 321.565 473.853 321.26 474.12C321.08 474.298 320.925 474.5 320.8 474.72C320.624 474.851 320.463 475.002 320.32 475.17C319.909 475.692 319.672 476.33 319.644 476.994C319.615 477.658 319.796 478.314 320.16 478.87C322.02 481.87 326.5 480.09 326.61 476.8C326.67 475 325.25 473.27 323.52 473.55Z" fill="#333333"/>
<path d="M333.89 464.85C333.48 462.85 333.42 460.62 332.81 458.67C331.37 454.07 328.36 453.3 323.9 454.45C321.06 455.18 317.82 455.32 315.59 452.58C315.09 451.97 314.94 450.32 314.48 449.58C313.598 448.032 312.172 446.867 310.48 446.31C307.97 445.55 305.14 446.47 302.68 446.99C298 448 293.41 449 288.8 450C283.8 451.09 278.36 451.45 274.97 455.3L274.64 455.43C274.495 455.488 274.377 455.598 274.308 455.739C274.24 455.879 274.226 456.04 274.27 456.19C274.086 456.441 273.916 456.701 273.76 456.97C272.241 459.493 271.163 462.256 270.57 465.14C270.27 466.78 270.65 468.5 269.67 469.86C268.5 471.5 265.67 471.76 263.78 472.4C258.67 474.13 251.48 476.08 248.16 480.74C246.04 483.74 245.95 488.29 248.59 490.74C248.146 490.918 247.728 491.157 247.35 491.45C247.062 491.624 246.821 491.865 246.647 492.152C246.473 492.439 246.371 492.765 246.35 493.1C246.112 494.92 245.995 496.754 246 498.59C245.99 498.902 246.082 499.209 246.263 499.463C246.443 499.718 246.702 499.906 247 500C249 500.55 251.35 499.54 253.3 499.08C256.037 498.534 258.731 497.789 261.36 496.85C261.51 496.8 261.647 496.715 261.758 496.602C261.869 496.489 261.952 496.351 262 496.2L262.06 496.31C264.19 499.92 268.91 502.31 272.98 500.68C276.54 499.28 278.62 495.56 278.98 491.68C279.255 491.909 279.592 492.051 279.948 492.088C280.304 492.126 280.663 492.057 280.98 491.89C286.19 491.31 291.32 489.45 296.34 488.03C297.86 487.6 309.73 484.67 314.44 482.98C314.5 483.15 314.56 483.32 314.63 483.49C316.5 488 321.56 488.4 325.81 487.17C327.572 486.693 329.136 485.666 330.273 484.237C331.41 482.809 332.061 481.054 332.13 479.23C332.177 478.842 332.203 478.451 332.21 478.06C332.682 478.178 333.181 478.105 333.599 477.855C334.017 477.606 334.319 477.201 334.44 476.73H334.61C334.93 476.809 335.267 476.786 335.574 476.665C335.881 476.543 336.141 476.328 336.32 476.05C337.09 474.83 336.99 474.26 336.75 472.86C336.28 470.4 334.44 467.58 333.89 464.85ZM313.61 453.23C314.281 454.667 315.241 455.95 316.43 457C314.27 457.87 311.43 457.85 309.38 458.17C308.5 458.31 307.64 458.65 306.81 458.17C305.98 457.69 305.87 456.92 305.55 456C305 454.42 304.47 452.83 303.8 451.28C304.8 450.65 306.45 450.77 307.59 450.66C308.521 450.472 309.475 450.428 310.42 450.53C310.504 450.545 310.591 450.53 310.666 450.488C310.741 450.446 310.799 450.38 310.83 450.3C311.997 451.016 312.956 452.026 313.61 453.23V453.23ZM274.53 458.4C274.979 457.51 275.57 456.7 276.28 456C278.337 454.983 280.546 454.308 282.82 454C286.36 453.84 286.41 455.51 287.26 458.15C287.85 460 288.48 461.54 287.62 463.33C286.28 466.13 281 467.08 278 468C276.23 468.58 274.39 469 272.63 469.66C272.68 465.9 272.86 461.75 274.53 458.4ZM257.71 475.6C262.17 473.91 267.16 473.17 271.8 472.1C271.991 472.051 272.166 471.953 272.308 471.817C272.45 471.68 272.554 471.509 272.61 471.32C276.88 470.91 281.33 469.03 285.15 467.54C288.15 466.37 289.48 465.62 288.99 462.32C288.68 460.22 287.54 454.32 285.44 453.09C285.023 452.866 284.562 452.74 284.09 452.72C285.46 452.5 286.85 452.32 288.21 452.08C291.79 451.44 295.37 450.78 298.94 450.13C302.26 449.53 305.79 448.74 308.76 449.47L308 449.62C306.37 449.86 304.53 449.88 303.31 451.11C303.281 451.141 303.265 451.182 303.265 451.225C303.265 451.267 303.281 451.309 303.31 451.34C303.74 453.48 304.18 456.93 305.31 458.79C306.2 460.21 307.82 459.79 309.24 459.6C311.24 459.33 316.24 459.49 318.5 457.78C319.409 457.906 320.331 457.906 321.24 457.78C322.12 457.67 322.95 457.38 323.81 457.2C327.37 456.45 329.5 457.51 331.58 460.81C332.03 461.51 332.92 465.36 333.58 468.68C333.165 468.826 332.758 468.993 332.36 469.18C332.08 469.31 331.8 469.44 331.53 469.59C328.73 465.8 324.35 463.54 319.19 465.17C317.849 465.6 316.607 466.292 315.536 467.207C314.465 468.122 313.588 469.24 312.954 470.498C312.32 471.755 311.943 473.126 311.844 474.531C311.746 475.936 311.928 477.346 312.38 478.68C302 481 291.57 483 281.51 486.39C280.85 483.39 279.67 480.39 277.15 478.59C273.83 476.21 269.15 476.35 265.53 477.87C263.772 478.589 262.193 479.683 260.901 481.075C259.609 482.467 258.636 484.124 258.05 485.93C257.813 486.697 257.642 487.483 257.54 488.28C255.91 488.71 254.29 489.16 252.67 489.61C251.87 489.83 250.93 490.01 250.01 490.27C248.89 483.73 250.72 478.26 257.71 475.6ZM268 481.39C266.365 482.087 264.973 483.253 264 484.74V484.74C263.545 484.978 263.124 485.278 262.75 485.63C263.689 483.965 265.126 482.636 266.86 481.83C267.232 481.663 267.612 481.516 268 481.39V481.39ZM254.23 495.88C252.94 496.1 251.66 496.33 250.38 496.58L248.73 496.9C247.48 497.51 247.13 497.06 247.67 495.54C247.67 493.94 247.16 493.39 248.87 493.01C249.99 492.75 251.15 492.62 252.28 492.38C254.013 492.02 255.743 491.64 257.47 491.24C257.544 492.692 258.132 494.071 259.13 495.13C257.49 495.3 255.86 495.61 254.23 495.88ZM269.23 498.36L269 498.3C272.08 498.3 274 496.09 274.85 493.53C275.158 493.14 275.417 492.713 275.62 492.26C277.16 488.8 275.62 486.18 273.01 485.64C272.506 485.341 271.947 485.145 271.367 485.065C270.787 484.984 270.196 485.02 269.63 485.17C266.69 485.81 265.94 487.71 266.31 489.62C266.106 490.266 266.052 490.95 266.15 491.62C266.84 496.43 271.61 496.87 274.34 494.14C273.53 495.731 272.125 496.938 270.43 497.5C269.586 497.766 268.687 497.803 267.825 497.608C266.962 497.413 266.167 496.993 265.52 496.39C264.627 495.57 263.957 494.538 263.57 493.39C262.67 490.72 263.48 488.64 264.17 486.22C266.6 482.1 272 479.84 276 484C280.76 488.92 277.15 500.6 269.2 498.36H269.23ZM298.17 485.76C292.92 487.21 287.33 488.4 282.23 490.46C282.26 490.182 282.211 489.901 282.09 489.65C281.95 488.65 281.79 487.54 281.56 486.46C291.761 483.461 302.108 480.981 312.56 479.03C312.749 479.589 312.98 480.134 313.25 480.66C313.396 480.915 313.631 481.108 313.91 481.2C313.914 481.226 313.914 481.253 313.91 481.28C308.67 482 303 484.41 298.14 485.76H298.17ZM323.67 484.1C321.93 484.42 319.27 484.5 318.1 482.76C317.18 481.4 316.93 478.51 316.86 476.96C316.65 472.64 318.86 470.17 322.71 469.57C325.27 471 328 472.4 329.05 475.43C330.46 479.53 327.78 483.36 323.64 484.1H323.67ZM334.43 473.8C334.213 473.78 333.994 473.822 333.8 473.92C333.325 472.584 332.684 471.314 331.89 470.14C332.14 470.06 332.39 469.98 332.64 469.88C333.014 469.756 333.381 469.612 333.74 469.45C334.081 470.88 334.312 472.334 334.43 473.8V473.8Z" fill="#333333"/>
<path d="M291.11 466C295.254 465.196 299.239 463.723 302.91 461.64C305.61 460.11 304.36 458.34 303.38 455.82C302.61 453.82 302.12 451.07 299.65 450.82C297.981 450.815 296.319 451.037 294.71 451.48C292.71 451.87 290.41 452.2 288.65 453.32C288.539 453.384 288.452 453.483 288.402 453.602C288.353 453.72 288.343 453.851 288.375 453.976C288.406 454.1 288.478 454.211 288.578 454.291C288.678 454.371 288.802 454.416 288.93 454.42H289C288.963 458.218 289.465 462.002 290.49 465.66C290.53 465.786 290.616 465.891 290.732 465.955C290.847 466.018 290.983 466.034 291.11 466V466ZM290.11 458.77C289.9 457.3 289.81 455.82 289.66 454.35C292.53 454.07 295.3 452.53 298.2 452.54C298.964 452.468 299.73 452.646 300.385 453.046C301.039 453.446 301.546 454.047 301.83 454.76C302.134 455.492 302.398 456.24 302.62 457C303.51 459.4 303.14 460.31 300.91 461.44C299.18 462.31 292.29 466.06 291.06 463.91C290.31 462.59 290.28 460.26 290.07 458.78L290.11 458.77Z" fill="#333333"/>
<path d="M323.6 462.08C324.493 462.19 325.33 462.57 326 463.17C326.16 463.28 326.3 463.07 326.24 462.93C325.992 462.47 325.617 462.09 325.16 461.837C324.702 461.583 324.182 461.466 323.66 461.5C323.583 461.492 323.506 461.515 323.446 461.564C323.386 461.613 323.348 461.683 323.34 461.76C323.332 461.837 323.355 461.914 323.404 461.974C323.452 462.034 323.523 462.072 323.6 462.08V462.08Z" fill="#333333"/>
<path d="M327.26 462C327.41 462 327.5 461.8 327.39 461.7C326.845 461.311 326.245 461.004 325.61 460.79C325.34 460.68 325.14 461.14 325.41 461.27C325.985 461.608 326.609 461.854 327.26 462V462Z" fill="#333333"/>
<path d="M296.25 478C296.63 478.779 297.241 479.422 298 479.84C298.059 479.876 298.128 479.892 298.197 479.884C298.265 479.876 298.329 479.846 298.378 479.798C298.428 479.749 298.46 479.686 298.469 479.618C298.478 479.549 298.465 479.48 298.43 479.42C298.039 478.648 297.421 478.013 296.66 477.6C296.605 477.559 296.536 477.539 296.467 477.543C296.399 477.548 296.334 477.577 296.284 477.625C296.235 477.673 296.204 477.738 296.198 477.806C296.192 477.875 296.21 477.944 296.25 478Z" fill="#333333"/>
<path d="M297.89 477.25C298.208 477.827 298.579 478.373 299 478.88C299.23 479.15 299.6 478.82 299.46 478.53C299.172 477.982 298.837 477.46 298.46 476.97C298.18 476.68 297.7 476.93 297.89 477.25Z" fill="#333333"/>
<path d="M254.7 484.64C254.9 484.77 255.17 484.51 255.04 484.31C254.669 483.832 254.25 483.393 253.79 483C253.74 482.96 253.678 482.94 253.615 482.943C253.551 482.946 253.491 482.972 253.445 483.016C253.4 483.06 253.372 483.12 253.367 483.183C253.363 483.247 253.381 483.309 253.42 483.36C253.802 483.829 254.23 484.258 254.7 484.64V484.64Z" fill="#333333"/>
<path d="M256.11 482.32C256.29 482.43 256.43 482.21 256.32 482.06C256.082 481.797 255.821 481.556 255.54 481.34C255.35 481.18 255.07 481.45 255.26 481.61C255.522 481.871 255.806 482.109 256.11 482.32V482.32Z" fill="#333333"/>
</g>
<defs>
<linearGradient id="paint0_linear_115_625" x1="720" y1="0" x2="720" y2="927.418" gradientUnits="userSpaceOnUse">
<stop stop-color="white"/>
<stop offset="1" stop-color="white" stop-opacity="0"/>
</linearGradient>
<clipPath id="clip0_115_625">
<rect width="90.89" height="55.2" fill="white" transform="translate(246 446)"/>
</clipPath>
</defs>
</svg>
