<svg width="191" height="161" viewBox="0 0 191 161" fill="none" xmlns="http://www.w3.org/2000/svg">
<path opacity="0.07" d="M191 77.6608C191 117.911 143.209 161 95.417 161C47.6255 161 0 117.911 0 77.6608C0 37.4108 47.6255 0 95.417 0C143.209 0 191 37.4108 191 77.6608Z" fill="#58AFC5"/>
<path d="M88.8548 117.286H87.1935V114.016C87.1935 113.787 87.1457 113.562 87.0508 113.353L80.4056 98.6383C80.1379 98.0459 79.545 97.6667 78.8871 97.6667H48.9839C48.0648 97.6667 47.3226 98.3972 47.3226 99.3017V117.286H45.6613C44.7422 117.286 44 118.016 44 118.921V125.46C44 126.365 44.7422 127.095 45.6613 127.095H50.8812C51.6234 129.909 54.2022 132 57.2903 132C60.3785 132 62.9572 129.909 63.6994 127.095H70.8167C71.5589 129.909 74.1377 132 77.2258 132C80.314 132 82.8927 129.909 83.6349 127.095H88.8548C89.7739 127.095 90.5161 126.365 90.5161 125.46V118.921C90.5161 118.016 89.7739 117.286 88.8548 117.286ZM57.2903 128.73C55.4579 128.73 53.9677 127.264 53.9677 125.46C53.9677 123.657 55.4579 122.191 57.2903 122.191C59.1228 122.191 60.6129 123.657 60.6129 125.46C60.6129 127.264 59.1228 128.73 57.2903 128.73ZM77.2258 128.73C75.3934 128.73 73.9032 127.264 73.9032 125.46C73.9032 123.657 75.3934 122.191 77.2258 122.191C79.0583 122.191 80.5484 123.657 80.5484 125.46C80.5484 127.264 79.0583 128.73 77.2258 128.73ZM87.1935 123.825H83.6349C82.8927 121.011 80.314 118.921 77.2258 118.921C74.1377 118.921 71.5589 121.011 70.8167 123.825H63.6994C62.9572 121.011 60.3785 118.921 57.2903 118.921C54.2022 118.921 51.6234 121.011 50.8812 123.825H47.3226V120.556H48.9839C49.9029 120.556 50.6452 119.825 50.6452 118.921V100.937H77.809L83.871 114.362V118.921C83.871 119.825 84.6132 120.556 85.5323 120.556H87.1935V123.825Z" fill="#58AFC5"/>
<path d="M77.1079 105.307C76.8532 104.706 76.244 104.312 75.5643 104.312H68.9193C68.0003 104.312 67.2581 105.019 67.2581 105.894V113.805C67.2581 114.68 68.0003 115.387 68.9193 115.387H78.8868C79.4384 115.387 79.9535 115.126 80.2625 114.693C80.5716 114.259 80.634 113.705 80.4304 113.218L77.1079 105.307ZM70.5806 112.223V107.476H74.44L76.433 112.223H70.5806Z" fill="#58AFC5"/>
<path d="M62.2742 104.312H55.6291C54.71 104.312 53.9678 105.019 53.9678 105.894V113.805C53.9678 114.68 54.71 115.387 55.6291 115.387H62.2742C63.1933 115.387 63.9355 114.68 63.9355 113.805V105.894C63.9355 105.019 63.1933 104.312 62.2742 104.312ZM60.6129 112.223H57.2904V107.476H60.6129V112.223Z" fill="#58AFC5"/>
<path d="M72.2419 92.1291H122.081C126.661 92.1291 130.387 95.8557 130.387 100.436C130.387 105.015 126.661 108.742 122.081 108.742H93.8387V112.065H122.081C128.491 112.065 133.71 106.846 133.71 100.436C133.71 94.0249 128.491 88.8066 122.081 88.8066H72.2419C58.5014 88.8066 47.3226 77.6277 47.3226 63.8872C47.3226 50.1467 58.5014 38.9678 72.2419 38.9678H120.419V35.6453H72.2419C56.669 35.6453 44 48.3142 44 63.8872C44 79.4602 56.669 92.1291 72.2419 92.1291Z" fill="#58AFC5"/>
<path d="M122.081 75.5162H97.1613V71.9C100.021 70.9712 102.145 67.7467 102.145 63.8872C102.145 59.3073 99.1649 55.5807 95.5 55.5807C91.8351 55.5807 88.8548 59.3073 88.8548 63.8872C88.8548 67.7467 90.9793 70.9695 93.8387 71.9V75.5162H80.5483V71.9C83.4077 70.9712 85.5322 67.7467 85.5322 63.8872C85.5322 59.3073 82.552 55.5807 78.8871 55.5807C75.2222 55.5807 72.2419 59.3073 72.2419 63.8872C72.2419 67.7467 74.3664 70.9695 77.2258 71.9V75.5162H72.2419C65.8312 75.5162 60.6129 70.2979 60.6129 63.8872C60.6129 57.4764 65.8312 52.2581 72.2419 52.2581H120.419V48.9355H72.2419C63.9971 48.9355 57.2903 55.6424 57.2903 63.8872C57.2903 72.132 63.9971 78.8388 72.2419 78.8388H122.081C133.989 78.8388 143.677 88.5275 143.677 100.436C143.677 112.344 133.989 122.032 122.081 122.032H93.8387V125.355H122.081C135.821 125.355 147 114.176 147 100.436C147 86.695 135.821 75.5162 122.081 75.5162ZM92.1774 63.8872C92.1774 61.1859 93.6991 58.9033 95.5 58.9033C97.3008 58.9033 98.8225 61.1859 98.8225 63.8872C98.8225 66.5884 97.3008 68.871 95.5 68.871C93.6991 68.871 92.1774 66.5884 92.1774 63.8872ZM75.5645 63.8872C75.5645 61.1859 77.0862 58.9033 78.8871 58.9033C80.6879 58.9033 82.2096 61.1859 82.2096 63.8872C82.2096 66.5884 80.6879 68.871 78.8871 68.871C77.0862 68.871 75.5645 66.5884 75.5645 63.8872Z" fill="#58AFC5"/>
<path d="M114.882 42.2903H120.419V45.6129H114.882V42.2903Z" fill="#58AFC5"/>
<path d="M101.591 42.2903H108.236V45.6129H101.591V42.2903Z" fill="#58AFC5"/>
<path d="M88.301 42.2903H94.9462V45.6129H88.301V42.2903Z" fill="#58AFC5"/>
<path d="M75.0107 42.2903H81.6559V45.6129H75.0107V42.2903Z" fill="#58AFC5"/>
<path d="M63.3849 47.8279C65.2724 46.722 67.3188 45.9752 69.4731 45.6096L68.9216 42.2903C66.3747 42.7241 63.9527 43.6057 61.7205 44.917L63.3849 47.8279Z" fill="#58AFC5"/>
<path d="M54.8296 51.1506C53.3995 53.2548 52.363 55.5947 51.7527 58.1014L54.6891 58.9033C55.2055 56.7811 56.08 54.8022 57.2903 53.0238L54.8296 51.1506Z" fill="#58AFC5"/>
<path d="M50.6453 65.8311C50.8328 68.4276 51.4056 70.9417 52.3483 73.301L55.0754 71.8639C54.2784 69.8698 53.7942 67.7436 53.6368 65.5483L50.6453 65.8311Z" fill="#58AFC5"/>
<path d="M60.4806 77.7312L58.3979 80.2171C60.3739 82.0548 62.6284 83.4555 65.104 84.3764L66.1506 81.2528C64.0588 80.472 62.1511 79.2873 60.4806 77.7312Z" fill="#58AFC5"/>
<path d="M71.6882 82.1614H78.3334V85.484H71.6882V82.1614Z" fill="#58AFC5"/>
<path d="M84.9785 82.1614H91.6237V85.484H84.9785V82.1614Z" fill="#58AFC5"/>
<path d="M98.2688 82.1614H104.914V85.484H98.2688V82.1614Z" fill="#58AFC5"/>
<path d="M111.559 82.1614H118.204V85.484H111.559V82.1614Z" fill="#58AFC5"/>
<path d="M132.602 85.837C130.478 84.0024 128.084 82.766 125.489 82.1614L124.849 85.8017C126.969 86.2948 128.924 87.3073 130.663 88.8065L132.602 85.837Z" fill="#58AFC5"/>
<path d="M138.878 93.2366L135.925 94.6458C136.725 96.6496 137.131 98.7833 137.131 100.989H140.355C140.355 98.2955 139.858 95.686 138.878 93.2366Z" fill="#58AFC5"/>
<path d="M131.495 112.661L133.483 115.387C135.999 113.44 137.993 110.85 139.247 107.891L136.216 106.527C135.188 108.946 133.556 111.07 131.495 112.661Z" fill="#58AFC5"/>
<path d="M118.204 115.663V118.71H121.898C123.258 118.71 124.625 118.597 125.957 118.374L125.225 115.387C124.134 115.57 123.013 115.663 121.898 115.663H118.204Z" fill="#58AFC5"/>
<path d="M104.914 115.387H111.559V118.71H104.914V115.387Z" fill="#58AFC5"/>
<path d="M93.8386 115.387H98.2687V118.71H93.8386V115.387Z" fill="#58AFC5"/>
<path d="M133.71 52.125V68.871H137.032V52.125C142.658 51.3147 147 46.4752 147 40.629C147 34.2183 141.782 29 135.371 29C128.96 29 123.742 34.2183 123.742 40.629C123.742 46.4752 128.084 51.3147 133.71 52.125ZM135.371 32.3226C139.951 32.3226 143.677 36.0491 143.677 40.629C143.677 45.2089 139.951 48.9355 135.371 48.9355C130.791 48.9355 127.065 45.2089 127.065 40.629C127.065 36.0491 130.791 32.3226 135.371 32.3226Z" fill="#58AFC5"/>
<path d="M140.355 41.1829H136.663C136.663 41.9976 135.836 42.6596 134.817 42.6596V45.613C137.87 45.613 140.355 43.625 140.355 41.1829Z" fill="#58AFC5"/>
</svg>
