<svg width="141" height="94" viewBox="0 0 141 94" fill="none" xmlns="http://www.w3.org/2000/svg">
<g clip-path="url(#clip0_8_461)">
<path d="M30 94C46.5685 94 60 80.5685 60 64C60 47.4315 46.5685 34 30 34C13.4315 34 0 47.4315 0 64C0 80.5685 13.4315 94 30 94Z" fill="#FDF3D3"/>
<path d="M42.3117 48.2488H17.6859C16.775 48.2516 15.9022 48.6147 15.2581 49.259C14.6141 49.9032 14.2513 50.7761 14.2488 51.6871V76.3128C14.2513 77.2237 14.6142 78.0965 15.2582 78.7405C15.9023 79.3846 16.7751 79.7475 17.6859 79.75H42.3117C43.2226 79.7475 44.0955 79.3846 44.7398 78.7406C45.384 78.0966 45.7472 77.2238 45.75 76.3128V51.6871C45.7475 50.7759 45.3844 49.9028 44.7402 49.2586C44.0959 48.6143 43.2228 48.2513 42.3117 48.2488ZM35.4539 77.9066H30.9433C29.0683 77.9066 29.0683 75.0027 30.9433 75.0027H35.4539C37.3265 75.0027 37.3265 77.9066 35.4539 77.9066ZM40.3417 77.9066C38.4667 77.9066 38.4667 75.0027 40.3417 75.0027C42.2167 75.0027 42.2144 77.9066 40.3417 77.9066ZM43.3886 71.821C43.3835 72.1562 43.248 72.4762 43.0108 72.7132C42.7736 72.9501 42.4535 73.0854 42.1183 73.0902H17.8816C17.5466 73.0851 17.2268 72.9497 16.9899 72.7128C16.753 72.4759 16.6176 72.156 16.6125 71.821V51.8828C16.6173 51.5476 16.7525 51.2274 16.9895 50.9903C17.2264 50.7531 17.5464 50.6176 17.8816 50.6125H42.1171C42.4525 50.6173 42.7728 50.7527 43.01 50.9899C43.2472 51.2271 43.3826 51.5474 43.3875 51.8828L43.3886 71.821ZM29.6835 54.8968C29.6831 54.6024 29.77 54.3144 29.9332 54.0693C30.0965 53.8243 30.3288 53.6332 30.6007 53.5202C30.8726 53.4072 31.1719 53.3774 31.4607 53.4345C31.7496 53.4917 32.015 53.6332 32.2234 53.8413C32.4317 54.0493 32.5737 54.3145 32.6313 54.6033C32.689 54.892 32.6596 55.1914 32.547 55.4635C32.4345 55.7356 32.2437 55.9681 31.9989 56.1318C31.7541 56.2954 31.4663 56.3828 31.1718 56.3828C30.7775 56.3828 30.3993 56.2263 30.1203 55.9477C29.8412 55.6691 29.6842 55.2911 29.6835 54.8968ZM31.1718 58.2578C31.8374 58.2575 32.488 58.0599 33.0413 57.69C33.5947 57.32 34.0259 56.7943 34.2804 56.1793C34.535 55.5643 34.6015 54.8876 34.4715 54.2348C34.3415 53.582 34.0208 52.9824 33.5501 52.5119C33.0794 52.0413 32.4797 51.7209 31.8268 51.5911C31.174 51.4613 30.4973 51.528 29.8824 51.7828C29.2675 52.0376 28.7419 52.469 28.3722 53.0224C28.0024 53.5759 27.805 54.2265 27.805 54.8921C27.8053 55.7849 28.1602 56.6409 28.7916 57.2721C29.4229 57.9032 30.2791 58.2578 31.1718 58.2578ZM31.1718 52.5156C31.6411 52.5158 32.0997 52.6552 32.4898 52.916C32.8798 53.1768 33.1838 53.5475 33.3633 53.981C33.5428 54.4146 33.5896 54.8917 33.498 55.3519C33.4064 55.8121 33.1805 56.2348 32.8486 56.5666C32.5168 56.8984 32.0941 57.1244 31.6339 57.216C31.1737 57.3076 30.6966 57.2607 30.2631 57.0813C29.8295 56.9018 29.4589 56.5978 29.198 56.2077C28.9372 55.8177 28.7978 55.359 28.7976 54.8898C28.7992 54.2612 29.05 53.659 29.4951 53.2152C29.9403 52.7714 30.5433 52.5223 31.1718 52.5226V52.5156ZM41.4539 67.8484H35.1562C34.5386 67.8484 34.5386 66.8898 35.1562 66.8898H41.4562C42.0703 66.898 42.0703 67.8566 41.455 67.8566L41.4539 67.8484ZM41.4539 69.7164H40.2703C39.6539 69.7164 39.6539 68.7566 40.2703 68.7566H41.4539C42.0703 68.7636 42.0703 69.7246 41.455 69.7246L41.4539 69.7164ZM41.4539 71.5832H38.7585C38.141 71.5832 38.141 70.6246 38.7585 70.6246H41.4539C42.0703 70.6316 42.0703 71.5902 41.455 71.5902L41.4539 71.5832Z" fill="#86622D"/>
<path d="M41.5921 51.1023H38.8863C38.8031 52.2308 38.3953 55.1957 36.4464 57.1667C35.1152 58.5085 33.3 59.1589 30.8906 59.1589C24.1148 59.1589 19.732 62.0417 17.196 65.582V71.3828C17.2 71.7031 17.3288 72.0093 17.5552 72.2361C17.7815 72.4628 18.0874 72.5923 18.4078 72.5968H19.6804C20.3015 69.5101 22.9828 64.3105 30.8894 64.3105C34.691 64.3105 37.7941 63.1269 40.1109 60.7867C41.2696 59.5956 42.1851 58.1901 42.8062 56.6488V52.3128C42.8013 51.9927 42.6718 51.6871 42.445 51.461C42.2183 51.2349 41.9123 51.1062 41.5921 51.1023Z" fill="#86622D"/>
<path d="M18.4453 68.9722C18.1778 69.5161 17.9488 70.078 17.7598 70.6539V69.4527C17.857 69.2253 17.952 68.9992 18.0609 68.7789L18.1582 68.5867L18.5426 68.7789L18.4453 68.9722Z" fill="#FDF3D3"/>
<path d="M20.8594 65.6405C20.3681 66.1236 19.9184 66.6474 19.5153 67.2062L19.3899 67.3796L19.0383 67.1276L19.1625 66.953C19.5814 66.3755 20.047 65.8334 20.5547 65.3323L20.7083 65.1812L21.0083 65.4882L20.8594 65.6405Z" fill="#FDF3D3"/>
<path d="M24.2425 63.2968C23.6171 63.5859 23.0173 63.9273 22.4495 64.3175L22.2737 64.4406L22.0288 64.089L22.2058 63.9718C22.7944 63.5703 23.4148 63.2176 24.0608 62.9171L24.2577 62.8269L24.437 63.2148L24.2425 63.2968Z" fill="#FDF3D3"/>
<path d="M28.2059 62.1438C27.5217 62.2428 26.8451 62.3884 26.1809 62.5797L25.9746 62.6383L25.8574 62.2258L26.0625 62.1661C26.7462 61.9698 27.4423 61.8198 28.1461 61.7172L28.3582 61.6868L28.4191 62.1122L28.2059 62.1438Z" fill="#FDF3D3"/>
<path d="M32.3894 61.8778C31.8949 61.9292 31.3982 61.9547 30.9011 61.954C30.6761 61.954 30.478 61.954 30.2729 61.9645H30.0573L30.0444 61.5368L30.2612 61.5286C30.471 61.5227 30.6855 61.5286 30.9022 61.5192C31.3836 61.5196 31.8647 61.4953 32.3437 61.4465L32.5581 61.4231L32.6026 61.8508L32.3894 61.8778Z" fill="#FDF3D3"/>
<path d="M36.4627 60.6321C35.8365 60.9821 35.1735 61.2619 34.4858 61.4665L34.2795 61.5262L34.1565 61.1161L34.3627 61.054C35.02 60.8592 35.6536 60.592 36.2518 60.2571L36.4405 60.1516L36.6502 60.5266L36.4627 60.6321Z" fill="#FDF3D3"/>
<path d="M39.5811 57.7199C39.1818 58.3172 38.7163 58.8676 38.1936 59.3605L38.0366 59.5082L37.7424 59.1953L37.8995 59.0476C38.3982 58.5769 38.842 58.0513 39.2225 57.4808L39.3397 57.3015L39.6913 57.5417L39.5811 57.7199Z" fill="#FDF3D3"/>
<path d="M41.2665 53.8046C41.0955 54.4969 40.8706 55.1748 40.5938 55.8319L40.5106 56.03L40.1145 55.8612L40.1977 55.6644C40.4659 55.0276 40.6842 54.3709 40.8504 53.7003L40.9032 53.4917L41.3192 53.596L41.2665 53.8046Z" fill="#FDF3D3"/>
</g>
<path d="M60.4922 63.3281C60.4922 64.6042 60.2871 65.9714 59.877 67.4297C59.4896 68.888 58.9997 70.278 58.4072 71.5996C57.8376 72.9212 57.2223 74.0833 56.5615 75.0859C55.9007 76.0885 55.3197 76.7721 54.8184 77.1367C54.6589 77.2507 54.3398 77.3988 53.8613 77.5811C53.4056 77.7861 52.8587 78.0026 52.2207 78.2305C51.6055 78.4811 50.9333 78.7318 50.2041 78.9824C49.4749 79.2331 48.7799 79.4609 48.1191 79.666C47.4811 79.8711 46.9001 80.0306 46.376 80.1445C45.8519 80.2812 45.4759 80.3496 45.248 80.3496C45.0658 80.3496 44.9746 80.2812 44.9746 80.1445C44.9746 80.0306 45.0999 79.8369 45.3506 79.5635C45.5785 79.29 45.8747 78.9824 46.2393 78.6406C46.6266 78.2988 47.0368 77.9456 47.4697 77.5811C47.9027 77.2165 48.3128 76.8861 48.7002 76.5898C49.0876 76.2708 49.418 75.9974 49.6914 75.7695C49.9876 75.5417 50.1585 75.4049 50.2041 75.3594C50.3636 75.2227 50.637 74.9948 51.0244 74.6758C51.4118 74.3568 51.8447 74.0036 52.3232 73.6162C52.8018 73.2288 53.2917 72.8301 53.793 72.4199C54.3171 71.987 54.7842 71.5882 55.1943 71.2236C55.6045 70.859 55.9463 70.5514 56.2197 70.3008C56.4932 70.0273 56.6299 69.8564 56.6299 69.7881C56.6299 68.8083 56.3564 67.8854 55.8096 67.0195C55.2627 66.1536 54.5905 65.3903 53.793 64.7295C53.0182 64.0687 52.1979 63.5446 51.332 63.1572C50.4661 62.7471 49.7256 62.5192 49.1104 62.4736C49.0876 62.4508 49.0762 62.3825 49.0762 62.2686C49.0762 62.0863 49.1217 61.7445 49.2129 61.2432C49.304 60.7191 49.418 60.138 49.5547 59.5C49.7142 58.8392 49.8851 58.1556 50.0674 57.4492C50.2725 56.7201 50.4775 56.0592 50.6826 55.4668C50.8877 54.8743 51.0928 54.3844 51.2979 53.9971C51.5029 53.6097 51.6852 53.416 51.8447 53.416C52.0042 53.416 52.3232 53.5072 52.8018 53.6895C53.3031 53.8717 53.8727 54.1452 54.5107 54.5098C55.1715 54.8516 55.8438 55.2959 56.5273 55.8428C57.2337 56.3896 57.8831 57.0277 58.4756 57.7568C59.068 58.486 59.5465 59.3177 59.9111 60.252C60.2985 61.1862 60.4922 62.2116 60.4922 63.3281ZM73.8906 65.0371C73.5944 65.2194 73.3096 65.4017 73.0361 65.584C72.7627 65.7435 72.5007 65.9258 72.25 66.1309C71.8626 66.4499 71.5436 66.9056 71.293 67.498C71.0423 68.0677 70.7461 68.8766 70.4043 69.9248C70.1992 70.5856 69.9941 71.2236 69.7891 71.8389C69.6068 72.4541 69.4017 73.0579 69.1738 73.6504C68.946 74.2201 68.6725 74.8011 68.3535 75.3936C68.0573 75.9632 67.6927 76.5443 67.2598 77.1367C67.0775 77.3874 66.9066 77.5924 66.7471 77.752C66.5876 77.9342 66.4167 78.0824 66.2344 78.1963C66.0749 78.333 65.8812 78.4469 65.6533 78.5381C65.4482 78.6292 65.1976 78.7204 64.9014 78.8115C63.124 79.3356 61.3353 79.7686 59.5352 80.1104C57.735 80.4749 55.9805 80.8623 54.2715 81.2725C54.1576 81.2952 54.055 81.3066 53.9639 81.3066C53.8727 81.3294 53.8044 81.3408 53.7588 81.3408C53.2575 81.3408 53.0068 81.1927 53.0068 80.8965C53.0068 80.623 53.2233 80.3382 53.6562 80.042C53.7018 79.9964 53.7702 79.9395 53.8613 79.8711C53.9297 79.8255 54.0892 79.723 54.3398 79.5635C54.5677 79.404 54.8981 79.1647 55.3311 78.8457C55.764 78.5495 56.3678 78.1393 57.1426 77.6152C57.9173 77.1139 58.8857 76.4759 60.0479 75.7012C61.21 74.9264 62.6227 73.9808 64.2861 72.8643C65.5166 72.0439 66.6104 71.0755 67.5674 69.959C68.5472 68.8424 69.208 67.5664 69.5498 66.1309C69.7549 65.2422 69.9714 64.3535 70.1992 63.4648C70.4271 62.5762 70.7005 61.7217 71.0195 60.9014C71.3385 60.0811 71.7145 59.3177 72.1475 58.6113C72.6032 57.8822 73.1615 57.2214 73.8223 56.6289L73.8906 65.0371ZM102.021 16.6045C101.109 17.2197 100.289 17.7096 99.5596 18.0742C98.8304 18.416 98.0557 18.7464 97.2354 19.0654C96.4378 19.3617 95.5378 19.6921 94.5352 20.0566C93.5553 20.4212 92.3477 20.9111 90.9121 21.5264C90.3424 21.777 89.9323 21.9593 89.6816 22.0732C89.431 22.1872 89.2145 22.3011 89.0322 22.415C88.8499 22.5062 88.6335 22.6315 88.3828 22.791C88.1322 22.9277 87.722 23.1556 87.1523 23.4746C87.1068 23.5202 86.9814 23.5999 86.7764 23.7139C86.5941 23.805 86.446 23.8506 86.332 23.8506C86.2181 23.8506 86.1611 23.805 86.1611 23.7139C86.1611 23.5544 86.2979 23.2809 86.5713 22.8936C86.7992 22.4834 87.0954 22.0505 87.46 21.5947C87.8245 21.1162 88.2233 20.6605 88.6562 20.2275C89.0892 19.7718 89.5221 19.373 89.9551 19.0312C90.388 18.6667 90.7868 18.3932 91.1514 18.2109C92.1768 17.6641 93.1794 17.1969 94.1592 16.8096C95.1618 16.3994 96.1188 16.0348 97.0303 15.7158C97.9645 15.374 98.8418 15.055 99.6621 14.7588C100.505 14.4626 101.291 14.1436 102.021 13.8018C102.203 13.7562 102.453 13.665 102.772 13.5283C103.114 13.3688 103.467 13.1979 103.832 13.0156C104.197 12.8105 104.55 12.6055 104.892 12.4004C105.233 12.1953 105.507 12.0244 105.712 11.8877C105.917 11.751 106.088 11.6826 106.225 11.6826C106.384 11.6826 106.464 11.7738 106.464 11.9561C106.464 12.1611 106.339 12.4232 106.088 12.7422L102.021 16.6045ZM72.1816 58.6455C72.6374 57.9391 73.1615 57.3011 73.7539 56.7314C74.3464 56.1618 75.0755 55.6719 75.9414 55.2617C76.7389 54.8971 77.4339 54.6693 78.0264 54.5781C78.6188 54.4642 79.1087 54.3275 79.4961 54.168C79.9062 53.9857 80.2025 53.6781 80.3848 53.2451C80.5898 52.8122 80.6924 52.083 80.6924 51.0576C80.6924 49.0752 80.6924 47.4688 80.6924 46.2383C80.7152 45.0078 80.7266 44.0394 80.7266 43.333C80.7266 42.6266 80.7266 42.1139 80.7266 41.7949C80.7493 41.4759 80.7607 41.248 80.7607 41.1113C80.8291 40.3366 80.943 39.5618 81.1025 38.7871C81.262 38.0124 81.4443 37.2262 81.6494 36.4287C81.695 36.2692 81.752 36.0869 81.8203 35.8818C81.8887 35.654 82.0026 35.3464 82.1621 34.959C82.3444 34.5488 82.5951 34.0133 82.9141 33.3525C83.2331 32.6917 83.666 31.8486 84.2129 30.8232C84.6003 30.208 85.0332 29.6611 85.5117 29.1826C85.9902 28.7041 86.5485 28.2256 87.1865 27.7471C88.3031 26.9268 89.5791 26.1748 91.0146 25.4912C92.4502 24.8076 93.9199 24.1582 95.4238 23.543C96.9277 22.9277 98.4089 22.3353 99.8672 21.7656C101.326 21.1732 102.624 20.5807 103.764 19.9883C104.356 19.6921 105.006 19.373 105.712 19.0312C106.418 18.6667 107.113 18.2907 107.797 17.9033C108.503 17.4932 109.164 17.083 109.779 16.6729C110.417 16.2399 110.941 15.8184 111.352 15.4082C111.557 15.2031 111.728 15.1006 111.864 15.1006C112.047 15.1006 112.138 15.2487 112.138 15.5449C112.138 15.9095 112.024 16.2057 111.796 16.4336C110.884 17.6413 109.905 18.7122 108.856 19.6465C107.808 20.5807 106.76 21.5719 105.712 22.6201C104.846 23.486 103.9 24.2266 102.875 24.8418C101.85 25.4342 100.79 26.0153 99.6963 26.585C98.6709 27.109 97.6455 27.6104 96.6201 28.0889C95.6175 28.5446 94.6149 29.0003 93.6123 29.4561C92.6097 29.889 91.6071 30.3447 90.6045 30.8232C89.6247 31.3018 88.6221 31.8258 87.5967 32.3955C87.2093 32.6006 86.8447 32.8398 86.5029 33.1133C86.1839 33.3867 85.8991 33.6602 85.6484 33.9336C85.3978 34.1842 85.1927 34.4235 85.0332 34.6514C84.8965 34.8564 84.8281 34.9932 84.8281 35.0615C84.8965 35.8363 84.9421 36.5199 84.9648 37.1123C84.9876 37.682 84.999 38.1947 84.999 38.6504C84.999 40.291 84.9535 41.8177 84.8623 43.2305C84.7939 44.6204 84.6458 46.0788 84.418 47.6055C84.1901 49.1777 83.8711 50.7272 83.4609 52.2539C83.0736 53.7578 82.5723 55.2617 81.957 56.7656C81.7064 57.3581 81.4102 57.9847 81.0684 58.6455C80.7266 59.2835 80.3506 59.9102 79.9404 60.5254C79.5303 61.1178 79.0859 61.6647 78.6074 62.166C78.1289 62.6673 77.639 63.0661 77.1377 63.3623C76.2946 63.8636 75.4629 64.3193 74.6426 64.7295C73.8451 65.1169 73.0589 65.5726 72.2842 66.0967L72.1816 58.6455ZM95.458 52.7666C95.777 52.7666 95.9821 52.8691 96.0732 53.0742C96.1644 53.2793 96.21 53.4502 96.21 53.5869C96.21 55.2959 96.1416 57.1074 96.0049 59.0215C95.891 60.9128 95.6859 62.8268 95.3896 64.7637C95.1162 66.7005 94.7402 68.6032 94.2617 70.4717C93.806 72.3402 93.2363 74.0947 92.5527 75.7354C92.3477 76.2139 91.9603 76.6582 91.3906 77.0684C90.8438 77.4785 90.1943 77.8545 89.4424 78.1963C88.6904 78.5609 87.8815 78.8799 87.0156 79.1533C86.1725 79.4268 85.3636 79.6546 84.5889 79.8369C83.8141 80.042 83.1305 80.1901 82.5381 80.2812C81.9229 80.3952 81.4785 80.4521 81.2051 80.4521C81.0456 80.4521 80.8861 80.418 80.7266 80.3496C80.5443 80.304 80.4531 80.2243 80.4531 80.1104C80.4531 79.9508 80.5898 79.7344 80.8633 79.4609C81.1367 79.1875 81.5013 78.8571 81.957 78.4697C82.4128 78.1051 82.9368 77.6836 83.5293 77.2051C84.1445 76.7493 84.7826 76.248 85.4434 75.7012C87.2891 74.1973 88.7246 72.625 89.75 70.9844C90.7982 69.321 91.5957 67.6006 92.1426 65.8232C92.7122 64.0459 93.1338 62.2116 93.4072 60.3203C93.6807 58.429 93.9883 56.4808 94.3301 54.4756C94.3529 54.3161 94.387 54.1452 94.4326 53.9629C94.501 53.7578 94.5807 53.5755 94.6719 53.416C94.763 53.2337 94.8656 53.0856 94.9795 52.9717C95.1162 52.835 95.2757 52.7666 95.458 52.7666ZM112.172 63.3281C112.172 65.4701 111.83 67.6006 111.146 69.7197C110.486 71.8389 109.563 73.9466 108.378 76.043C108.082 76.5671 107.74 76.9544 107.353 77.2051C106.965 77.4557 106.555 77.6722 106.122 77.8545C105.484 78.1507 104.709 78.4811 103.798 78.8457C102.909 79.2331 101.986 79.6318 101.029 80.042C100.801 80.1331 100.528 80.2471 100.209 80.3838C99.89 80.5205 99.5596 80.6458 99.2178 80.7598C98.8988 80.8737 98.5911 80.9762 98.2949 81.0674C97.9987 81.1585 97.7708 81.2041 97.6113 81.2041C97.4062 81.2041 97.3037 81.1243 97.3037 80.9648C97.3037 80.737 97.5088 80.3952 97.9189 79.9395C98.3519 79.4837 98.8304 79.0166 99.3545 78.5381C99.9014 78.0596 100.403 77.6266 100.858 77.2393C101.337 76.8519 101.622 76.6126 101.713 76.5215C102.875 75.4961 104.003 74.4821 105.097 73.4795C106.19 72.4541 107.284 71.4173 108.378 70.3691C108.651 70.0957 108.788 69.7425 108.788 69.3096C108.788 68.7399 108.594 68.2614 108.207 67.874C107.478 68.3981 106.658 68.6602 105.746 68.6602C105.199 68.6602 104.664 68.569 104.14 68.3867C103.638 68.1816 103.183 67.9196 102.772 67.6006C102.385 67.2588 102.066 66.86 101.815 66.4043C101.565 65.9486 101.439 65.4587 101.439 64.9346C101.439 64.2965 101.61 63.3851 101.952 62.2002C102.294 60.9925 102.761 59.3975 103.354 57.415C103.673 56.3213 104.151 55.5465 104.789 55.0908C105.427 54.6123 106.111 54.373 106.84 54.373C107.523 54.373 108.184 54.5781 108.822 54.9883C109.46 55.3757 109.996 55.9567 110.429 56.7314C110.657 57.1644 110.873 57.6657 111.078 58.2354C111.306 58.805 111.5 59.3975 111.659 60.0127C111.819 60.6051 111.944 61.1976 112.035 61.79C112.126 62.3597 112.172 62.8724 112.172 63.3281ZM103.354 32.2822C104.037 31.4163 104.766 30.5277 105.541 29.6162C106.293 28.7048 106.965 27.8958 107.558 27.1895C107.672 27.0755 107.763 27.0186 107.831 27.0186C107.922 27.0186 108.082 27.0983 108.31 27.2578C108.902 27.668 109.586 28.1693 110.36 28.7617C111.112 29.3314 111.819 29.8669 112.479 30.3682C113.14 29.5706 113.812 28.7503 114.496 27.9072C115.18 27.0641 115.806 26.3122 116.376 25.6514C116.49 25.5374 116.581 25.4805 116.649 25.4805C116.741 25.4805 116.9 25.5602 117.128 25.7197C117.72 26.1299 118.393 26.6198 119.145 27.1895C119.919 27.7363 120.637 28.2604 121.298 28.7617C121.412 28.8757 121.514 28.9668 121.605 29.0352C121.697 29.1035 121.742 29.1833 121.742 29.2744C121.742 29.3428 121.674 29.4681 121.537 29.6504L117.401 34.6406C117.356 34.709 117.287 34.7773 117.196 34.8457C117.128 34.9368 117.071 34.9824 117.025 34.9824C116.934 34.9824 116.798 34.9255 116.615 34.8115C115.977 34.3786 115.271 33.8659 114.496 33.2734C113.744 32.7038 113.038 32.1227 112.377 31.5303L108.515 36.1787C108.469 36.2471 108.412 36.3154 108.344 36.3838C108.253 36.4749 108.184 36.5205 108.139 36.5205C108.048 36.5205 107.911 36.4635 107.729 36.3496C107.09 35.9167 106.396 35.3926 105.644 34.7773C104.869 34.1849 104.151 33.5924 103.49 33C103.262 32.8177 103.148 32.681 103.148 32.5898C103.148 32.5443 103.171 32.4987 103.217 32.4531C103.262 32.3848 103.308 32.3278 103.354 32.2822ZM108.651 60.7988L111.728 59.8076C112.024 59.7165 112.252 59.5342 112.411 59.2607C112.593 58.9873 112.73 58.6683 112.821 58.3037C112.935 57.9391 113.004 57.5518 113.026 57.1416C113.072 56.7087 113.095 56.2985 113.095 55.9111C113.095 55.4554 113.083 54.8857 113.061 54.2021C113.038 53.4958 113.004 52.8008 112.958 52.1172C112.935 51.4336 112.912 50.8184 112.89 50.2715C112.867 49.7018 112.855 49.3258 112.855 49.1436C112.855 48.0954 113.015 47.1383 113.334 46.2725C113.676 45.4066 114.04 44.4951 114.428 43.5381C114.496 43.3786 114.61 43.0824 114.77 42.6494C114.929 42.1937 115.1 41.7152 115.282 41.2139C115.465 40.6898 115.635 40.1999 115.795 39.7441C115.954 39.2884 116.068 38.9694 116.137 38.7871C116.273 38.4909 116.433 38.3428 116.615 38.3428C116.889 38.3428 117.025 38.5934 117.025 39.0947C117.025 39.4365 117.003 39.8923 116.957 40.4619C116.911 41.0088 116.889 41.5101 116.889 41.9658L117.47 51.1602C117.47 52.6185 117.287 53.9515 116.923 55.1592C116.558 56.3669 116.103 57.6543 115.556 59.0215C115.1 60.1836 114.542 61.4482 113.881 62.8154C113.22 64.1598 112.536 65.6523 111.83 67.293C111.443 67.8171 111.055 68.3298 110.668 68.8311C110.281 69.3324 109.882 69.8451 109.472 70.3691L108.651 60.7988Z" fill="#86622D"/>
<defs>
<clipPath id="clip0_8_461">
<rect width="60" height="60" fill="white" transform="translate(0 34)"/>
</clipPath>
</defs>
</svg>
