<svg width="357" height="56" viewBox="0 0 357 56" fill="none" xmlns="http://www.w3.org/2000/svg">
<path d="M36 12L324 12" stroke="url(#paint0_linear_117_626)" stroke-dasharray="7 7"/>
<g clip-path="url(#clip0_117_626)">
<path d="M24.6201 8.45C23.5701 3.83 19.5401 1.75 16.0001 1.75C16.0001 1.75 16.0001 1.75 15.9901 1.75C12.4601 1.75 8.4201 3.82 7.3701 8.44C6.2001 13.6 9.3601 17.97 12.2201 20.72C13.2801 21.74 14.6401 22.25 16.0001 22.25C17.3601 22.25 18.7201 21.74 19.7701 20.72C22.6301 17.97 25.7901 13.61 24.6201 8.45ZM16.0001 13.46C14.2601 13.46 12.8501 12.05 12.8501 10.31C12.8501 8.57 14.2601 7.16 16.0001 7.16C17.7401 7.16 19.1501 8.57 19.1501 10.31C19.1501 12.05 17.7401 13.46 16.0001 13.46Z" fill="#E19F20"/>
</g>
<g clip-path="url(#clip1_117_626)">
<path d="M352.62 8.45C351.57 3.83 347.54 1.75 344 1.75C344 1.75 344 1.75 343.99 1.75C340.46 1.75 336.42 3.82 335.37 8.44C334.2 13.6 337.36 17.97 340.22 20.72C341.28 21.74 342.64 22.25 344 22.25C345.36 22.25 346.72 21.74 347.77 20.72C350.63 17.97 353.79 13.61 352.62 8.45ZM344 13.46C342.26 13.46 340.85 12.05 340.85 10.31C340.85 8.57 342.26 7.16 344 7.16C345.74 7.16 347.15 8.57 347.15 10.31C347.15 12.05 345.74 13.46 344 13.46Z" fill="#58AFC5"/>
</g>
<path d="M6.92383 52.0195C5.51758 52.0195 4.36523 51.7526 3.4668 51.2188C2.57487 50.6914 1.91406 49.972 1.48438 49.0605C1.0612 48.1556 0.849609 47.1335 0.849609 45.9941C0.849609 45.3496 0.914714 44.6595 1.04492 43.9238C1.18164 43.1816 1.40299 42.4036 1.70898 41.5898L3.92578 42.4395C3.69141 43.1296 3.51237 43.7643 3.38867 44.3438C3.27148 44.9232 3.21289 45.4473 3.21289 45.916C3.21289 46.554 3.32357 47.14 3.54492 47.6738C3.77279 48.2077 4.1569 48.6341 4.69727 48.9531C5.23763 49.2721 5.97982 49.4316 6.92383 49.4316C7.94596 49.4316 8.77604 49.321 9.41406 49.0996C10.0586 48.8783 10.5306 48.6276 10.8301 48.3477C11.1296 48.0677 11.2793 47.8398 11.2793 47.6641C11.2793 47.4232 11.1621 47.2507 10.9277 47.1465C10.6999 47.0488 10.3353 47 9.83398 47H8.32031C8.07292 47 7.91341 46.9349 7.8418 46.8047C7.77669 46.6745 7.71159 46.4987 7.64648 46.2773L7.26562 44.8711C7.21354 44.7083 7.20378 44.5879 7.23633 44.5098C7.26888 44.4251 7.38281 44.3828 7.57812 44.3828H13.3594V47C13.4115 47.1432 13.444 47.2604 13.457 47.3516C13.4701 47.4427 13.4766 47.5436 13.4766 47.6543C13.4766 48.2207 13.3333 48.7643 13.0469 49.2852C12.7604 49.8125 12.3372 50.2812 11.7773 50.6914C11.2174 51.1016 10.5306 51.4238 9.7168 51.6582C8.90299 51.8991 7.97201 52.0195 6.92383 52.0195ZM15.941 40.2715L18.2262 39.998L18.4215 42.6934C18.441 43.0319 18.5094 43.3281 18.6266 43.582C18.7503 43.8359 18.9293 44.0312 19.1637 44.168C19.398 44.3047 19.6975 44.373 20.0621 44.373H20.2574V47H20.0426C19.5999 47 19.2027 46.9447 18.8512 46.834C18.4996 46.7233 18.1904 46.5703 17.9234 46.375C17.6565 46.1797 17.4254 45.9518 17.2301 45.6914C16.846 46.1081 16.3772 46.4303 15.8238 46.6582C15.277 46.8861 14.6943 47 14.0758 47H13.148V44.373H14.0758C14.8115 44.373 15.3225 44.207 15.609 43.875C15.8954 43.543 16.0387 43.0384 16.0387 42.3613C16.0387 41.9967 16.0289 41.6419 16.0094 41.2969C15.9964 40.9453 15.9736 40.6035 15.941 40.2715ZM16.4098 35.1934L18.0992 36.8828L16.4098 38.5723L14.7203 36.8828L16.4098 35.1934ZM20.007 44.373H20.7883V47H20.007V44.373ZM23.5617 48.3086L25.173 49.9102L23.5617 51.5312L21.9504 49.9102L23.5617 48.3086ZM20.2609 48.3086L21.8918 49.9102L20.2609 51.5312L18.6691 49.9102L20.2609 48.3086ZM23.3469 40.2715L25.632 39.998L25.8273 42.6934C25.8469 43.0319 25.9152 43.3281 26.0324 43.582C26.1561 43.8359 26.3352 44.0312 26.5695 44.168C26.8039 44.3047 27.1034 44.373 27.468 44.373H27.6633V47H27.4484C27.0057 47 26.6086 46.9447 26.257 46.834C25.9055 46.7233 25.5962 46.5703 25.3293 46.375C25.0624 46.1797 24.8312 45.9518 24.6359 45.6914C24.2518 46.1081 23.7831 46.4303 23.2297 46.6582C22.6828 46.8861 22.1001 47 21.4816 47H20.5539V44.373H21.4816C22.2173 44.373 22.7284 44.207 23.0148 43.875C23.3013 43.543 23.4445 43.0384 23.4445 42.3613C23.4445 41.9967 23.4348 41.6419 23.4152 41.2969C23.4022 40.9453 23.3794 40.6035 23.3469 40.2715ZM27.8719 47H27.4617L27.4715 44.373H27.823C28.1681 44.373 28.4708 44.2493 28.7313 44.002C28.9917 43.7546 29.2423 43.4355 29.4832 43.0449C29.7241 42.6478 29.9715 42.2311 30.2254 41.7949C30.4858 41.3522 30.7755 40.9323 31.0945 40.5352C31.4135 40.138 31.7879 39.8158 32.2176 39.5684C32.6473 39.321 33.1583 39.1973 33.7508 39.1973C34.4799 39.1973 35.1082 39.3503 35.6355 39.6562C36.1694 39.9557 36.6023 40.3659 36.9344 40.8867C37.2729 41.401 37.4975 41.9772 37.6082 42.6152C37.6863 43.0449 37.797 43.39 37.9402 43.6504C38.0835 43.9108 38.2495 44.0964 38.4383 44.207C38.6336 44.3177 38.8354 44.373 39.0438 44.373H39.2977V47H39.034C38.6173 47 38.2072 46.9056 37.8035 46.7168C37.3999 46.528 37.0776 46.2904 36.8367 46.0039C36.5177 46.4206 36.1564 46.7298 35.7527 46.9316C35.3556 47.127 34.8706 47.2246 34.2977 47.2246C33.8484 47.2246 33.422 47.1595 33.0184 47.0293C32.6147 46.8991 32.2208 46.7168 31.8367 46.4824C31.4591 46.248 31.0783 45.9779 30.6941 45.6719C30.4533 45.9258 30.2091 46.1536 29.9617 46.3555C29.7143 46.5508 29.4279 46.707 29.1023 46.8242C28.7768 46.9414 28.3667 47 27.8719 47ZM33.8289 41.6973C33.549 41.6973 33.2951 41.7917 33.0672 41.9805C32.8458 42.1693 32.6473 42.4004 32.4715 42.6738C32.3022 42.9408 32.159 43.2012 32.0418 43.4551C32.2436 43.6439 32.4389 43.8099 32.6277 43.9531C32.8165 44.0964 32.9956 44.2135 33.1648 44.3047C33.3927 44.4284 33.601 44.5163 33.7898 44.5684C33.9852 44.6204 34.1577 44.6465 34.3074 44.6465C34.6785 44.6465 34.9454 44.5228 35.1082 44.2754C35.2775 44.028 35.3621 43.7285 35.3621 43.377C35.3621 42.9147 35.2254 42.5208 34.952 42.1953C34.6785 41.8633 34.3042 41.6973 33.8289 41.6973ZM45.141 33.4258L46.8305 35.1152L45.141 36.8047L43.4516 35.1152L45.141 33.4258ZM39.0766 44.373H40.7172C41.5961 44.373 42.4197 44.2754 43.1879 44.0801C43.9626 43.8848 44.7471 43.6113 45.5414 43.2598C46.3422 42.9017 47.2113 42.4818 48.1488 42C47.9079 41.8958 47.6378 41.7852 47.3383 41.668C47.0453 41.5508 46.7523 41.4368 46.4594 41.3262C46.1729 41.209 45.919 41.1113 45.6977 41.0332C45.4698 40.9421 45.2647 40.8672 45.0824 40.8086C44.9066 40.7435 44.7536 40.6947 44.6234 40.6621C44.4997 40.6296 44.3988 40.6133 44.3207 40.6133C43.9561 40.6133 43.6078 40.7272 43.2758 40.9551C42.9503 41.1764 42.6898 41.4141 42.4945 41.668L42.0258 42.2539L39.975 41.248L40.3559 40.6328C40.8051 39.8906 41.3682 39.2786 42.0453 38.7969C42.7224 38.3151 43.4841 38.0742 44.3305 38.0742C44.9099 38.0742 45.4633 38.1784 45.9906 38.3867C46.5245 38.5885 47.0616 38.8229 47.602 39.0898C48.1814 39.3763 48.6859 39.6139 49.1156 39.8027C49.5453 39.985 49.9294 40.1348 50.268 40.252C50.613 40.3626 50.9483 40.4473 51.2738 40.5059C51.5993 40.5579 51.9509 40.5938 52.3285 40.6133V43.0254C51.8793 43.084 51.4464 43.1882 51.0297 43.3379C50.613 43.4811 50.1671 43.6699 49.6918 43.9043C49.2165 44.1387 48.6697 44.4219 48.0512 44.7539C47.2178 45.1966 46.4171 45.5872 45.6488 45.9258C44.8871 46.2643 44.1059 46.528 43.3051 46.7168C42.5108 46.9056 41.6384 47 40.6879 47H39.0766V44.373ZM67.5211 43.4258C67.5211 43.1263 67.4527 42.8464 67.316 42.5859C67.1858 42.3255 67.0035 42.1172 66.7691 41.9609C66.5348 41.8047 66.2581 41.7266 65.9391 41.7266C65.7112 41.7266 65.5029 41.7884 65.3141 41.9121C65.1253 42.0293 64.956 42.1888 64.8063 42.3906C64.663 42.5859 64.5361 42.804 64.4254 43.0449C64.3147 43.2793 64.2203 43.5137 64.1422 43.748C64.4677 43.8913 64.7802 44.028 65.0797 44.1582C65.3857 44.2819 65.6656 44.3828 65.9195 44.4609C66.1734 44.5391 66.3883 44.5781 66.5641 44.5781C66.9091 44.5781 67.1533 44.4642 67.2965 44.2363C67.4462 44.002 67.5211 43.7318 67.5211 43.4258ZM61.8375 43.3477C62.0068 42.7812 62.2151 42.2507 62.4625 41.7559C62.7164 41.2611 63.0126 40.8216 63.3512 40.4375C63.6897 40.0534 64.0706 39.7539 64.4938 39.5391C64.9234 39.3177 65.3922 39.207 65.9 39.207C66.6878 39.207 67.3746 39.3828 67.9605 39.7344C68.5465 40.0859 69.0055 40.5807 69.3375 41.2188C69.6695 41.8503 69.8355 42.5892 69.8355 43.4355C69.8355 44.1126 69.7119 44.7344 69.4645 45.3008C69.2171 45.8607 68.846 46.3099 68.3512 46.6484C67.8629 46.987 67.2542 47.1562 66.525 47.1562C66.1669 47.1562 65.7893 47.0944 65.3922 46.9707C64.9951 46.847 64.6044 46.707 64.2203 46.5508C63.8427 46.388 63.4977 46.2448 63.1852 46.1211C62.8727 45.9974 62.6188 45.9355 62.4234 45.9355C62.2542 45.9355 62.1142 46.0169 62.0035 46.1797C61.8994 46.3359 61.8147 46.5671 61.7496 46.873C61.691 47.1725 61.6487 47.5339 61.6227 47.957C61.6031 48.3802 61.5934 48.8522 61.5934 49.373C61.5934 49.9069 61.6031 50.4212 61.6227 50.916C61.6422 51.4173 61.665 51.8665 61.691 52.2637C61.7236 52.6608 61.7464 52.9798 61.7594 53.2207H59.2789C59.2398 52.5371 59.2073 51.8763 59.1813 51.2383C59.1552 50.6068 59.1422 49.9915 59.1422 49.3926C59.1422 48.5592 59.1715 47.7975 59.2301 47.1074C59.2887 46.4173 59.4059 45.8118 59.5816 45.291C59.7639 44.7637 60.0341 44.334 60.3922 44.002C60.7568 43.6699 61.2385 43.4518 61.8375 43.3477ZM72.1828 33.2598H74.6535V42.3613C74.6535 43.097 74.7642 43.6178 74.9855 43.9238C75.2069 44.2233 75.6398 44.373 76.2844 44.373H76.5188V47H76.2844C74.8716 47 73.8332 46.6322 73.1691 45.8965C72.5116 45.1608 72.1828 44.0443 72.1828 42.5469V33.2598ZM82.6844 41.6973C82.4044 41.6973 82.1505 41.7917 81.9227 41.9805C81.7013 42.1693 81.5027 42.4004 81.327 42.6738C81.1577 42.9408 81.0145 43.2012 80.8973 43.4551C81.0861 43.6374 81.2684 43.7969 81.4441 43.9336C81.6264 44.0638 81.7957 44.1745 81.952 44.2656C82.1928 44.4023 82.4142 44.5 82.616 44.5586C82.8243 44.6172 83.0066 44.6465 83.1629 44.6465C83.534 44.6465 83.8009 44.5228 83.9637 44.2754C84.1329 44.028 84.2176 43.7285 84.2176 43.377C84.2176 42.9147 84.0809 42.5208 83.8074 42.1953C83.534 41.8633 83.1596 41.6973 82.6844 41.6973ZM83.1531 47.2246C82.7039 47.2246 82.2775 47.1595 81.8738 47.0293C81.4702 46.8991 81.0763 46.7168 80.6922 46.4824C80.3146 46.248 79.9337 45.9779 79.5496 45.6719C79.3087 45.9258 79.0646 46.1536 78.8172 46.3555C78.5698 46.5508 78.2833 46.707 77.9578 46.8242C77.6323 46.9414 77.2221 47 76.7273 47H76.3172V44.373H76.6785C77.0236 44.373 77.3263 44.2493 77.5867 44.002C77.8471 43.7546 78.0978 43.4355 78.3387 43.0449C78.5796 42.6478 78.827 42.2311 79.0809 41.7949C79.3413 41.3522 79.631 40.9323 79.95 40.5352C80.269 40.138 80.6434 39.8158 81.073 39.5684C81.5027 39.321 82.0138 39.1973 82.6062 39.1973C83.407 39.1973 84.1004 39.3893 84.6863 39.7734C85.2788 40.151 85.7345 40.6523 86.0535 41.2773C86.3725 41.9023 86.532 42.5859 86.532 43.3281C86.532 44.0833 86.4051 44.7539 86.1512 45.3398C85.8973 45.9258 85.5197 46.388 85.0184 46.7266C84.5236 47.0586 83.9018 47.2246 83.1531 47.2246ZM91.3305 33.2598V46.9902H88.85V33.2598H91.3305ZM104.58 43.2402C104.58 43.0189 104.482 42.7747 104.287 42.5078C104.098 42.2409 103.864 41.9772 103.584 41.7168C103.304 41.4499 103.03 41.2155 102.763 41.0137C102.503 41.248 102.252 41.502 102.011 41.7754C101.77 42.0423 101.572 42.3092 101.416 42.5762C101.259 42.8431 101.181 43.097 101.181 43.3379C101.181 43.6569 101.328 43.9108 101.621 44.0996C101.914 44.2819 102.33 44.373 102.871 44.373C103.437 44.373 103.864 44.2819 104.15 44.0996C104.436 43.9173 104.58 43.6309 104.58 43.2402ZM100.966 39.4512L100.586 39.1094L102.109 37.1562C102.701 37.6315 103.281 38.1035 103.847 38.5723C104.42 39.041 104.938 39.5228 105.4 40.0176C105.862 40.5059 106.23 41.0169 106.504 41.5508C106.777 42.0846 106.914 42.651 106.914 43.25C106.914 44.0182 106.741 44.679 106.396 45.2324C106.051 45.7858 105.576 46.2122 104.97 46.5117C104.365 46.8112 103.668 46.9609 102.88 46.9609C101.578 46.9609 100.579 46.6419 99.8824 46.0039C99.1923 45.3594 98.8473 44.5521 98.8473 43.582C98.8473 42.7747 99.0458 42.0553 99.443 41.4238C99.8401 40.7858 100.348 40.1283 100.966 39.4512ZM109.241 33.2598H111.712V42.3613C111.712 43.097 111.823 43.6178 112.044 43.9238C112.265 44.2233 112.698 44.373 113.343 44.373H113.577V47H113.343C111.93 47 110.892 46.6322 110.228 45.8965C109.57 45.1608 109.241 44.0443 109.241 42.5469V33.2598ZM114.157 35.2715V33.875L121.999 30.6816V32.0879L114.157 35.2715ZM116.667 37.8887C117.175 38.2077 117.66 38.5202 118.122 38.8262C118.584 39.1322 119.007 39.4479 119.391 39.7734C119.776 40.0924 120.111 40.4277 120.397 40.7793C120.684 41.1309 120.905 41.5052 121.061 41.9023C121.218 42.2995 121.296 42.7259 121.296 43.1816C121.296 44.1647 121.071 44.9362 120.622 45.4961C120.173 46.0495 119.531 46.4401 118.698 46.668C117.871 46.8893 116.885 47 115.739 47H113.376V44.373H115.729C116.452 44.373 117.048 44.3405 117.516 44.2754C117.992 44.2038 118.346 44.0801 118.581 43.9043C118.815 43.7285 118.932 43.4746 118.932 43.1426C118.932 42.9408 118.828 42.7194 118.62 42.4785C118.412 42.2376 118.138 41.987 117.8 41.7266C117.461 41.4661 117.09 41.2057 116.686 40.9453C116.289 40.6849 115.892 40.4277 115.495 40.1738C115.104 39.9199 114.753 39.679 114.44 39.4512C114.186 39.2559 113.988 39.0117 113.845 38.7188C113.708 38.4258 113.639 38.123 113.639 37.8105C113.639 37.459 113.724 37.1237 113.893 36.8047C114.069 36.4857 114.326 36.2611 114.665 36.1309L122.106 33.0938V35.6816L116.667 37.8887ZM125.928 44.4121C126.527 44.4121 127.087 44.3665 127.608 44.2754C128.129 44.1842 128.549 44.028 128.868 43.8066C129.187 43.5788 129.346 43.263 129.346 42.8594C129.346 42.4492 129.161 42.0163 128.789 41.5605C128.418 41.1048 127.914 40.6491 127.276 40.1934C126.638 39.7311 125.918 39.3047 125.118 38.9141L126.241 36.5703C126.963 36.9284 127.65 37.319 128.301 37.7422C128.952 38.1654 129.532 38.6309 130.039 39.1387C130.547 39.6465 130.948 40.2031 131.241 40.8086C131.534 41.4076 131.68 42.0618 131.68 42.7715C131.68 43.7676 131.452 44.5749 130.996 45.1934C130.547 45.8118 129.903 46.2643 129.063 46.5508C128.23 46.8372 127.233 46.9805 126.075 46.9805C125.573 46.9805 125.101 46.9642 124.659 46.9316C124.222 46.8926 123.796 46.8275 123.379 46.7363V44.1191C123.802 44.2038 124.245 44.2754 124.707 44.334C125.176 44.3861 125.583 44.4121 125.928 44.4121ZM141.137 44.9297C141.137 46.401 140.863 47.6315 140.316 48.6211C139.776 49.6172 138.998 50.4115 137.982 51.0039C136.973 51.6029 135.769 52.0358 134.369 52.3027L133.48 49.9004C134.392 49.7246 135.199 49.4935 135.902 49.207C136.612 48.9271 137.191 48.5885 137.641 48.1914C138.096 47.8008 138.399 47.3613 138.549 46.873C138.367 46.9121 138.171 46.9479 137.963 46.9805C137.761 47.0065 137.579 47.0195 137.416 47.0195C136.199 47.0195 135.242 46.7526 134.545 46.2188C133.855 45.6784 133.51 44.806 133.51 43.6016C133.51 43.0807 133.588 42.5501 133.744 42.0098C133.9 41.4629 134.128 40.9616 134.428 40.5059C134.727 40.0436 135.105 39.6725 135.561 39.3926C136.016 39.1061 136.544 38.9629 137.143 38.9629C137.852 38.9629 138.458 39.1322 138.959 39.4707C139.467 39.8092 139.88 40.2682 140.199 40.8477C140.518 41.4206 140.753 42.0618 140.902 42.7715C141.059 43.4746 141.137 44.194 141.137 44.9297ZM137.396 44.4121C137.67 44.4121 137.927 44.3958 138.168 44.3633C138.415 44.3242 138.627 44.2819 138.803 44.2363C138.777 43.9368 138.725 43.6276 138.646 43.3086C138.568 42.9896 138.464 42.6966 138.334 42.4297C138.204 42.1562 138.041 41.9382 137.846 41.7754C137.65 41.6061 137.41 41.5215 137.123 41.5215C136.791 41.5215 136.527 41.6419 136.332 41.8828C136.143 42.1172 136.01 42.3906 135.932 42.7031C135.86 43.0091 135.824 43.276 135.824 43.5039C135.824 43.875 135.967 44.1191 136.254 44.2363C136.547 44.3535 136.928 44.4121 137.396 44.4121ZM149.666 47C149.353 47 149.063 46.9642 148.796 46.8926C148.53 46.821 148.308 46.7298 148.132 46.6191C147.976 47.5892 147.654 48.4616 147.166 49.2363C146.677 50.0111 146.023 50.6589 145.203 51.1797C144.389 51.707 143.409 52.0846 142.263 52.3125L141.365 49.9102C142.328 49.6953 143.145 49.4089 143.816 49.0508C144.493 48.6992 145.007 48.2337 145.359 47.6543C145.711 47.0749 145.886 46.3522 145.886 45.4863C145.886 44.9004 145.798 44.2493 145.623 43.5332C145.453 42.8171 145.261 42.1432 145.046 41.5117L147.468 40.7109L148.035 42.8887C148.152 43.3379 148.324 43.6992 148.552 43.9727C148.787 44.2396 149.122 44.373 149.558 44.373H149.929V47H149.666ZM154.152 31.2188L155.841 32.9082L154.152 34.5977L152.462 32.9082L154.152 31.2188ZM154.464 40.9648C154.724 40.9648 154.985 40.9486 155.245 40.916C155.506 40.8835 155.763 40.8379 156.017 40.7793C155.978 40.5254 155.916 40.2552 155.831 39.9688C155.753 39.6823 155.649 39.4154 155.519 39.168C155.389 38.9206 155.232 38.7188 155.05 38.5625C154.868 38.4062 154.65 38.3281 154.396 38.3281C154.103 38.3281 153.855 38.4258 153.654 38.6211C153.452 38.8099 153.302 39.041 153.204 39.3145C153.107 39.5879 153.058 39.8548 153.058 40.1152C153.058 40.4798 153.191 40.7142 153.458 40.8184C153.725 40.916 154.06 40.9648 154.464 40.9648ZM153.409 44.373C154.002 44.373 154.493 44.3438 154.884 44.2852C155.275 44.2266 155.571 44.1061 155.773 43.9238C155.981 43.735 156.085 43.4421 156.085 43.0449C155.838 43.1035 155.577 43.1491 155.304 43.1816C155.03 43.2077 154.754 43.2207 154.474 43.2207C153.335 43.2207 152.439 42.9831 151.788 42.5078C151.137 42.0326 150.812 41.2708 150.812 40.2227C150.812 39.7018 150.893 39.181 151.056 38.6602C151.219 38.1393 151.456 37.6641 151.769 37.2344C152.081 36.7982 152.459 36.4499 152.902 36.1895C153.351 35.929 153.855 35.7988 154.415 35.7988C155.151 35.7988 155.769 35.9811 156.271 36.3457C156.779 36.7038 157.189 37.1855 157.501 37.791C157.82 38.3965 158.051 39.0736 158.195 39.8223C158.338 40.571 158.409 41.3294 158.409 42.0977C158.409 43.1003 158.308 43.9238 158.107 44.5684C157.905 45.2064 157.596 45.7044 157.179 46.0625C156.769 46.4141 156.241 46.6582 155.597 46.7949C154.952 46.9316 154.184 47 153.292 47H149.718V44.373H153.409Z" fill="black"/>
<path d="M317.209 35.877L318.898 37.5664L317.209 39.2559L315.52 37.5664L317.209 35.877ZM313.469 52.3125L312.551 49.9102C313.514 49.6953 314.331 49.4089 315.002 49.0508C315.679 48.6992 316.193 48.2337 316.545 47.6543C316.896 47.0749 317.072 46.3522 317.072 45.4863C317.072 44.9004 316.984 44.2493 316.809 43.5332C316.639 42.8171 316.447 42.1432 316.232 41.5117L318.664 40.7109C318.918 41.4141 319.11 42.1595 319.24 42.9473C319.37 43.735 319.436 44.4902 319.436 45.2129C319.436 46.528 319.195 47.6706 318.713 48.6406C318.231 49.6172 317.544 50.4115 316.652 51.0234C315.76 51.6354 314.699 52.0651 313.469 52.3125ZM324.224 33.2598V46.9902H321.744V33.2598H324.224ZM332.128 47C331.816 47 331.526 46.9642 331.259 46.8926C330.992 46.821 330.771 46.7298 330.595 46.6191C330.439 47.5892 330.116 48.4616 329.628 49.2363C329.14 50.0111 328.486 50.6589 327.665 51.1797C326.851 51.707 325.872 52.0846 324.726 52.3125L323.827 49.9102C324.791 49.6953 325.608 49.4089 326.279 49.0508C326.956 48.6992 327.47 48.2337 327.821 47.6543C328.173 47.0749 328.349 46.3522 328.349 45.4863C328.349 44.9004 328.261 44.2493 328.085 43.5332C327.916 42.8171 327.724 42.1432 327.509 41.5117L329.931 40.7109L330.497 42.8887C330.614 43.3379 330.787 43.6992 331.015 43.9727C331.249 44.2396 331.585 44.373 332.021 44.373H332.392V47H332.128ZM332.161 44.373H333.636V47H332.161V44.373ZM336.38 48.3086L337.991 49.9102L336.38 51.5312L334.768 49.9102L336.38 48.3086ZM333.079 48.3086L334.71 49.9102L333.079 51.5312L331.487 49.9102L333.079 48.3086ZM336.175 40.2715L338.46 39.998L338.655 42.6934C338.675 43.0319 338.743 43.3281 338.86 43.582C338.984 43.8359 339.163 44.0312 339.397 44.168C339.632 44.3047 339.931 44.373 340.296 44.373H340.491V47H340.276C339.833 47 339.436 46.9447 339.085 46.834C338.733 46.7233 338.424 46.5703 338.157 46.375C337.89 46.1797 337.659 45.9518 337.464 45.6914C337.08 46.1081 336.611 46.4303 336.057 46.6582C335.511 46.8861 334.928 47 334.309 47H333.382V44.373H334.309C335.045 44.373 335.556 44.207 335.843 43.875C336.129 43.543 336.272 43.0384 336.272 42.3613C336.272 41.9967 336.263 41.6419 336.243 41.2969C336.23 40.9453 336.207 40.6035 336.175 40.2715ZM349.157 33.1719L350.68 34.6953L349.157 36.2188L347.633 34.6953L349.157 33.1719ZM350.856 35.6621L352.379 37.1855L350.856 38.709L349.332 37.1855L350.856 35.6621ZM347.457 35.6621L348.981 37.1855L347.457 38.709L345.934 37.1855L347.457 35.6621ZM346.969 47C346.292 47 345.732 46.8861 345.289 46.6582C344.853 46.4238 344.498 46.1113 344.225 45.7207C343.873 46.1178 343.437 46.4303 342.916 46.6582C342.396 46.8861 341.745 47 340.963 47H340.28V44.373H340.983C341.718 44.373 342.262 44.2396 342.614 43.9727C342.965 43.6992 343.141 43.2109 343.141 42.5078C343.141 42.4036 343.135 42.2474 343.121 42.0391C343.108 41.8307 343.092 41.5964 343.073 41.3359C343.06 41.0755 343.043 40.8216 343.024 40.5742L345.309 40.291L345.514 42.7715C345.534 43.071 345.599 43.3444 345.709 43.5918C345.827 43.8327 345.989 44.0247 346.198 44.168C346.413 44.3047 346.676 44.373 346.989 44.373C347.562 44.373 347.968 44.2135 348.209 43.8945C348.45 43.569 348.571 43.1068 348.571 42.5078C348.571 42.4102 348.564 42.2572 348.551 42.0488C348.545 41.834 348.532 41.5964 348.512 41.3359C348.493 41.0755 348.473 40.8216 348.454 40.5742L350.739 40.291L350.944 42.7715C350.963 43.0514 351.019 43.3151 351.11 43.5625C351.201 43.8099 351.338 44.0085 351.52 44.1582C351.709 44.3014 351.95 44.373 352.243 44.373C352.516 44.373 352.734 44.2949 352.897 44.1387C353.06 43.9759 353.177 43.7643 353.248 43.5039C353.32 43.237 353.356 42.9473 353.356 42.6348C353.356 42.1921 353.301 41.6875 353.19 41.1211C353.079 40.5482 352.962 40.0143 352.838 39.5195L355.202 38.8945C355.358 39.474 355.478 40.0566 355.563 40.6426C355.648 41.222 355.69 41.8014 355.69 42.3809C355.69 43.2142 355.582 43.9824 355.368 44.6855C355.153 45.3822 354.798 45.9421 354.303 46.3652C353.808 46.7819 353.131 46.9935 352.272 47C351.673 47 351.168 46.8796 350.758 46.6387C350.348 46.3913 350.01 46.0788 349.743 45.7012C349.404 46.0918 348.997 46.4076 348.522 46.6484C348.047 46.8828 347.529 47 346.969 47Z" fill="black"/>
<defs>
<linearGradient id="paint0_linear_117_626" x1="327.986" y1="11.9993" x2="36" y2="12" gradientUnits="userSpaceOnUse">
<stop stop-color="#58AFC4"/>
<stop offset="1" stop-color="#E19F20"/>
</linearGradient>
<clipPath id="clip0_117_626">
<rect width="24" height="24" fill="white" transform="translate(4)"/>
</clipPath>
<clipPath id="clip1_117_626">
<rect width="24" height="24" fill="white" transform="translate(332)"/>
</clipPath>
</defs>
</svg>
