<svg width="16" height="16" viewBox="0 0 16 16" fill="none" xmlns="http://www.w3.org/2000/svg">
<path d="M2.61992 11.0866C2.49325 11.0866 2.36658 11.0399 2.26658 10.9399C2.07325 10.7466 2.07325 10.4266 2.26658 10.2332L10.2332 2.26658C10.4266 2.07325 10.7466 2.07325 10.9399 2.26658C11.1332 2.45992 11.1332 2.77992 10.9399 2.97325L2.97325 10.9466C2.87992 11.0399 2.74658 11.0866 2.61992 11.0866Z" fill="white"/>
<path d="M7.39995 12.6868C7.27328 12.6868 7.14661 12.6401 7.04661 12.5401C6.85328 12.3468 6.85328 12.0268 7.04661 11.8334L7.84661 11.0334C8.03995 10.8401 8.35995 10.8401 8.55328 11.0334C8.74661 11.2268 8.74661 11.5468 8.55328 11.7401L7.75328 12.5401C7.65995 12.6334 7.53328 12.6868 7.39995 12.6868Z" fill="white"/>
<path d="M9.1934 10.8934C9.06673 10.8934 8.94007 10.8468 8.84007 10.7468C8.64674 10.5534 8.64674 10.2334 8.84007 10.0401L10.4334 8.44676C10.6267 8.25342 10.9467 8.25342 11.1401 8.44676C11.3334 8.64009 11.3334 8.96009 11.1401 9.15342L9.54673 10.7468C9.4534 10.8401 9.32007 10.8934 9.1934 10.8934Z" fill="white"/>
<path d="M7.40002 15.1667C6.74669 15.1667 6.09336 14.7667 5.30002 13.9734L2.02669 10.7C0.433357 9.10669 0.440024 8.08002 2.04669 6.47336L6.47336 2.04669C8.08002 0.440024 9.10669 0.433357 10.7 2.02669L13.9734 5.30002C15.5667 6.89336 15.56 7.92002 13.9534 9.52669L9.52669 13.9534C8.72002 14.76 8.06002 15.1667 7.40002 15.1667ZM8.60002 1.83336C8.25336 1.83336 7.81336 2.12002 7.18002 2.75336L2.75336 7.18002C2.12002 7.81336 1.83336 8.25336 1.83336 8.59336C1.83336 8.94002 2.10002 9.36002 2.73336 9.99336L6.00669 13.2667C6.64002 13.9 7.05336 14.1667 7.40002 14.1667C7.40002 14.1667 7.40002 14.1667 7.40669 14.1667C7.75336 14.1667 8.18669 13.88 8.82002 13.2467L13.2467 8.82002C13.88 8.18669 14.1667 7.74669 14.1667 7.40669C14.1667 7.06002 13.9 6.64002 13.2667 6.00669L9.99336 2.73336C9.36669 2.10002 8.94669 1.83336 8.60002 1.83336Z" fill="white"/>
<path d="M14.6666 15.1667H1.33325C1.05992 15.1667 0.833252 14.9401 0.833252 14.6667C0.833252 14.3934 1.05992 14.1667 1.33325 14.1667H14.6666C14.9399 14.1667 15.1666 14.3934 15.1666 14.6667C15.1666 14.9401 14.9399 15.1667 14.6666 15.1667Z" fill="white"/>
</svg>
