<svg width="828" height="84" viewBox="0 0 828 84" fill="none" xmlns="http://www.w3.org/2000/svg">
<path d="M7.19926 59.9346C7.57296 59.9346 7.91248 60.0189 8.21782 60.1875C8.52771 60.3516 8.79659 60.5977 9.02446 60.9258C9.25232 61.2493 9.42778 61.6481 9.55082 62.1221C9.67843 62.596 9.74679 63.1406 9.7559 63.7559H10.5762V65H9.64653C9.54627 65.5241 9.34575 66.0299 9.04496 66.5176C8.74874 67.0098 8.30668 67.4427 7.71879 67.8164C7.1309 68.1947 6.3516 68.4772 5.3809 68.6641L4.97758 67.5771C5.66573 67.445 6.2559 67.2627 6.74809 67.0303C7.24483 66.7979 7.6436 66.513 7.94438 66.1758C8.24972 65.8385 8.45707 65.4466 8.56645 65H7.48637C6.62048 65 5.97107 64.8268 5.53813 64.4805C5.10974 64.1296 4.89555 63.6032 4.89555 62.9014C4.89555 62.5505 4.9434 62.1995 5.0391 61.8486C5.13481 61.4977 5.27836 61.1787 5.46977 60.8916C5.66573 60.5999 5.90727 60.3675 6.19438 60.1943C6.48149 60.0212 6.81645 59.9346 7.19926 59.9346ZM7.41801 63.7559H8.62797C8.60063 63.3184 8.5505 62.9378 8.47758 62.6143C8.40466 62.2861 8.30896 62.015 8.19047 61.8008C8.07198 61.5866 7.92843 61.4271 7.75981 61.3223C7.59119 61.2174 7.3975 61.165 7.17875 61.165C6.88709 61.165 6.65694 61.2653 6.48832 61.4658C6.32426 61.6618 6.20805 61.8919 6.13969 62.1562C6.07589 62.4206 6.04399 62.6553 6.04399 62.8604C6.04399 63.1794 6.15108 63.4095 6.36528 63.5508C6.58403 63.6875 6.93494 63.7559 7.41801 63.7559ZM15.2411 66.0459L16.2323 67.0371L15.2411 68.0283L14.2499 67.0371L15.2411 66.0459ZM10.5653 63.7559H11.7138C12.4293 63.7559 13.0992 63.6624 13.7235 63.4756C14.3524 63.2842 14.9745 63.0358 15.5897 62.7305C16.2095 62.4251 16.8589 62.0947 17.538 61.7393C17.3648 61.6755 17.2167 61.6185 17.0936 61.5684C16.9752 61.5182 16.8475 61.4635 16.7108 61.4043C16.5741 61.3405 16.3941 61.2653 16.1708 61.1787C15.8472 61.0465 15.5624 60.9326 15.3163 60.8369C15.0702 60.7412 14.8583 60.6683 14.6806 60.6182C14.5028 60.5635 14.3547 60.5361 14.2362 60.5361C13.9582 60.5361 13.6893 60.6182 13.4296 60.7822C13.1744 60.9417 12.9579 61.1354 12.7802 61.3633L12.5956 61.5957L11.5497 61.083L11.6522 60.9189C11.953 60.4313 12.3244 60.0417 12.7665 59.75C13.2131 59.4538 13.7053 59.3057 14.2431 59.3057C14.5393 59.3057 14.8674 59.3695 15.2274 59.4971C15.592 59.6201 15.9862 59.7842 16.41 59.9893C16.7792 60.167 17.1141 60.3219 17.4149 60.4541C17.7157 60.5863 17.9914 60.6956 18.2421 60.7822C18.4973 60.8688 18.7365 60.9349 18.9599 60.9805C19.1832 61.026 19.3974 61.0557 19.6024 61.0693V62.252C19.411 62.2747 19.1946 62.3271 18.953 62.4092C18.7115 62.4912 18.4221 62.612 18.0849 62.7715C17.7476 62.931 17.3375 63.1383 16.8544 63.3936C16.271 63.7035 15.7059 63.9792 15.1591 64.2207C14.6168 64.4622 14.063 64.6536 13.4979 64.7949C12.9374 64.9316 12.3358 65 11.6932 65H10.5653V63.7559ZM29.9781 63.8311C29.9781 64.7152 29.814 65.4831 29.4859 66.1348C29.1623 66.791 28.6747 67.3288 28.023 67.748C27.3759 68.1719 26.567 68.4772 25.5963 68.6641L25.1929 67.5771C25.8948 67.4404 26.5009 67.2467 27.0113 66.9961C27.5263 66.7454 27.9364 66.4355 28.2418 66.0664C28.5471 65.7018 28.7362 65.2848 28.8092 64.8154C28.636 64.8701 28.4355 64.918 28.2076 64.959C27.9797 65 27.7792 65.0205 27.606 65.0205C26.7857 65.0205 26.1637 64.8451 25.7398 64.4941C25.3206 64.1432 25.1109 63.6123 25.1109 62.9014C25.1109 62.5505 25.1588 62.1995 25.2545 61.8486C25.3547 61.4977 25.5006 61.1787 25.692 60.8916C25.8834 60.5999 26.1226 60.3675 26.4097 60.1943C26.7014 60.0212 27.0387 59.9346 27.4215 59.9346C27.8726 59.9346 28.2577 60.0462 28.5767 60.2695C28.9003 60.4883 29.1646 60.7845 29.3697 61.1582C29.5793 61.5319 29.732 61.9512 29.8277 62.416C29.928 62.8763 29.9781 63.348 29.9781 63.8311ZM27.6402 63.7832C27.8316 63.7832 28.0299 63.7695 28.2349 63.7422C28.44 63.7103 28.6405 63.6647 28.8365 63.6055C28.8137 63.2227 28.7659 62.8809 28.6929 62.5801C28.6246 62.2793 28.5312 62.0241 28.4127 61.8145C28.2942 61.6003 28.1506 61.4385 27.982 61.3291C27.8179 61.2197 27.6265 61.165 27.4078 61.165C27.107 61.165 26.8723 61.2653 26.7037 61.4658C26.5396 61.6618 26.4234 61.8919 26.3551 62.1562C26.2913 62.4206 26.2594 62.6553 26.2594 62.8604C26.2594 63.193 26.3733 63.43 26.6012 63.5713C26.829 63.7126 27.1754 63.7832 27.6402 63.7832ZM42.2405 58.2939L43.1975 59.2441L42.2405 60.208L41.2903 59.2441L42.2405 58.2939ZM39.971 58.2939L40.928 59.2441L39.971 60.208L39.0208 59.2441L39.971 58.2939ZM45.2346 60.8232L46.3762 60.6865L46.4924 62.2998C46.5198 62.7327 46.6451 63.0837 46.8684 63.3525C47.0917 63.6214 47.4244 63.7559 47.8665 63.7559H48.0169V65H47.8665C47.3515 65 46.9277 64.9043 46.595 64.7129C46.2669 64.5169 45.9957 64.2048 45.7815 63.7764C45.5309 64.068 45.2346 64.305 44.8928 64.4873C44.551 64.665 44.1363 64.7949 43.6487 64.877C43.1611 64.959 42.5686 65 41.8714 65H40.7298C39.8684 65 39.1142 64.9339 38.4671 64.8018C37.8245 64.6696 37.2867 64.4691 36.8538 64.2002C36.4254 63.9313 36.1018 63.5895 35.8831 63.1748C35.6689 62.7555 35.5618 62.2588 35.5618 61.6846C35.5618 61.3701 35.596 61.0625 35.6643 60.7617C35.7372 60.4609 35.8307 60.1715 35.9446 59.8936L37.0042 60.29C36.9312 60.4906 36.8697 60.7048 36.8196 60.9326C36.774 61.1605 36.7512 61.377 36.7512 61.582C36.7512 61.9831 36.8355 62.3226 37.0042 62.6006C37.1728 62.874 37.4212 63.0973 37.7493 63.2705C38.082 63.4391 38.4967 63.5622 38.9934 63.6396C39.4902 63.7171 40.0689 63.7559 40.7298 63.7559H41.8714C42.596 63.7559 43.2112 63.6966 43.7171 63.5781C44.2275 63.4596 44.6171 63.2773 44.886 63.0312C45.1549 62.7806 45.2893 62.457 45.2893 62.0605C45.2893 61.8737 45.2825 61.6663 45.2688 61.4385C45.2551 61.2106 45.2437 61.0055 45.2346 60.8232ZM56.4142 65C55.9767 65 55.6166 64.9089 55.3341 64.7266C55.0561 64.5443 54.8328 64.2868 54.6642 63.9541C54.409 64.3232 54.1082 64.5898 53.7618 64.7539C53.4155 64.918 53.06 65 52.6954 65C52.1713 65 51.7657 64.9111 51.4786 64.7334C51.1961 64.5511 50.9705 64.2913 50.8019 63.9541C50.5877 64.2913 50.3028 64.5511 49.9474 64.7334C49.5919 64.9111 49.1066 65 48.4913 65H48.0128V63.7559H48.505C49.0883 63.7559 49.5258 63.6237 49.8175 63.3594C50.1092 63.0905 50.255 62.6689 50.255 62.0947C50.255 62.0127 50.2527 61.9284 50.2482 61.8418C50.2436 61.7552 50.2368 61.6481 50.2276 61.5205C50.2185 61.3929 50.2049 61.2334 50.1866 61.042L51.3282 60.8984L51.4376 62.293C51.4558 62.5482 51.5128 62.7874 51.6085 63.0107C51.7088 63.234 51.85 63.4141 52.0323 63.5508C52.2146 63.6875 52.4402 63.7559 52.7091 63.7559C53.1922 63.7559 53.5362 63.6009 53.7413 63.291C53.951 62.9811 54.0558 62.5824 54.0558 62.0947C54.0558 62.0127 54.0535 61.9284 54.0489 61.8418C54.0444 61.7507 54.0375 61.6436 54.0284 61.5205C54.0193 61.3929 54.0056 61.2334 53.9874 61.042L55.129 60.8984L55.2384 62.293C55.2566 62.5391 55.3068 62.7738 55.3888 62.9971C55.4754 63.2204 55.6007 63.4027 55.7648 63.5439C55.9334 63.6852 56.1476 63.7559 56.4073 63.7559C56.6352 63.7559 56.8221 63.6875 56.9679 63.5508C57.1183 63.4141 57.2299 63.2227 57.3028 62.9766C57.3803 62.7259 57.4191 62.4365 57.4191 62.1084C57.4191 61.9443 57.4122 61.7734 57.3985 61.5957C57.3894 61.418 57.3735 61.1833 57.3507 60.8916L58.4923 60.7549L58.6017 62.293C58.6199 62.5846 58.6837 62.8398 58.7931 63.0586C58.9025 63.2773 59.0528 63.4482 59.2443 63.5713C59.4402 63.6943 59.6772 63.7559 59.9552 63.7559H60.1466V65H59.9689C59.4903 65 59.0916 64.9134 58.7726 64.7402C58.4536 64.5625 58.2348 64.2982 58.1163 63.9473C57.9249 64.2845 57.7039 64.5443 57.4532 64.7266C57.2071 64.9089 56.8608 65 56.4142 65ZM64.8183 66.0459L65.8095 67.0371L64.8183 68.0283L63.8271 67.0371L64.8183 66.0459ZM60.1425 63.7559H61.291C62.0065 63.7559 62.6764 63.6624 63.3007 63.4756C63.9296 63.2842 64.5517 63.0358 65.167 62.7305C65.7867 62.4251 66.4362 62.0947 67.1152 61.7393C66.942 61.6755 66.7939 61.6185 66.6709 61.5684C66.5524 61.5182 66.4248 61.4635 66.288 61.4043C66.1513 61.3405 65.9713 61.2653 65.748 61.1787C65.4244 61.0465 65.1396 60.9326 64.8935 60.8369C64.6474 60.7412 64.4355 60.6683 64.2578 60.6182C64.08 60.5635 63.9319 60.5361 63.8134 60.5361C63.5354 60.5361 63.2666 60.6182 63.0068 60.7822C62.7516 60.9417 62.5351 61.1354 62.3574 61.3633L62.1728 61.5957L61.1269 61.083L61.2295 60.9189C61.5302 60.4313 61.9017 60.0417 62.3437 59.75C62.7903 59.4538 63.2825 59.3057 63.8203 59.3057C64.1165 59.3057 64.4446 59.3695 64.8046 59.4971C65.1692 59.6201 65.5634 59.7842 65.9873 59.9893C66.3564 60.167 66.6914 60.3219 66.9921 60.4541C67.2929 60.5863 67.5686 60.6956 67.8193 60.7822C68.0745 60.8688 68.3138 60.9349 68.5371 60.9805C68.7604 61.026 68.9746 61.0557 69.1796 61.0693V62.252C68.9882 62.2747 68.7718 62.3271 68.5302 62.4092C68.2887 62.4912 67.9993 62.612 67.6621 62.7715C67.3248 62.931 66.9147 63.1383 66.4316 63.3936C65.8483 63.7035 65.2832 63.9792 64.7363 64.2207C64.194 64.4622 63.6403 64.6536 63.0752 64.7949C62.5146 64.9316 61.913 65 61.2705 65H60.1425V63.7559Z" fill="#00C9AF"/>
<line x1="60.5359" y1="23.6343" x2="393.436" y2="23.6343" stroke="#00C9AF" stroke-width="2"/>
<line x1="438.021" y1="23.6343" x2="770.921" y2="23.6343" stroke="#E7E1DA" stroke-width="2"/>
<path d="M381.93 73.3022H380.474C379.613 73.3022 378.859 73.2362 378.212 73.104C377.569 72.9718 377.031 72.7713 376.598 72.5024C376.17 72.2336 375.846 71.8918 375.628 71.4771C375.413 71.0578 375.306 70.561 375.306 69.9868C375.306 69.6724 375.34 69.3647 375.409 69.064C375.482 68.7632 375.575 68.4738 375.689 68.1958L376.749 68.5923C376.676 68.7928 376.614 69.007 376.564 69.2349C376.519 69.4627 376.496 69.6792 376.496 69.8843C376.496 70.2853 376.58 70.6248 376.749 70.9028C376.917 71.1763 377.166 71.3996 377.494 71.5728C377.826 71.7414 378.241 71.8644 378.738 71.9419C379.235 72.0194 379.813 72.0581 380.474 72.0581H381.937C382.224 72.0581 382.543 72.049 382.894 72.0308C383.245 72.008 383.582 71.9533 383.906 71.8667C384.234 71.7756 384.503 71.6274 384.713 71.4224C384.922 71.2173 385.027 70.9325 385.027 70.5679C385.027 70.3537 385 70.0506 384.945 69.6587C384.89 69.2668 384.813 68.884 384.713 68.5103L385.881 68.1958C385.959 68.4328 386.02 68.7062 386.066 69.0161C386.112 69.3215 386.144 69.6086 386.162 69.8774C386.185 70.1418 386.196 70.3332 386.196 70.4517C386.196 71.0532 386.077 71.5409 385.84 71.9146C385.608 72.2882 385.289 72.5754 384.883 72.7759C384.482 72.9764 384.027 73.1154 383.516 73.1929C383.006 73.2658 382.477 73.3022 381.93 73.3022ZM381.937 66.5962L382.894 67.5464L381.937 68.5103L380.987 67.5464L381.937 66.5962ZM379.668 66.5962L380.625 67.5464L379.668 68.5103L378.717 67.5464L379.668 66.5962ZM387.989 63.8208H389.158V70.4243C389.158 71.0669 389.274 71.4998 389.506 71.7231C389.743 71.9465 390.101 72.0581 390.579 72.0581H390.743V73.3022H390.579C389.709 73.3022 389.06 73.0721 388.631 72.6118C388.203 72.147 387.989 71.4155 387.989 70.4175V63.8208ZM392.645 72.0581C392.509 71.8849 392.383 71.6867 392.27 71.4634C392.16 71.2401 392.071 71.0031 392.003 70.7524C391.939 70.4972 391.907 70.2466 391.907 70.0005C391.907 69.5129 392.035 69.0708 392.29 68.6743C392.545 68.2778 392.88 67.9634 393.295 67.731C393.71 67.4985 394.156 67.3823 394.635 67.3823C394.995 67.3823 395.368 67.453 395.756 67.5942C396.148 67.7355 396.551 67.9474 396.966 68.23L396.508 69.2485C396.161 69.0435 395.838 68.8885 395.537 68.7837C395.236 68.6743 394.961 68.6196 394.71 68.6196C394.432 68.6196 394.17 68.6789 393.924 68.7974C393.682 68.9159 393.486 69.0822 393.336 69.2964C393.186 69.506 393.11 69.7567 393.11 70.0483C393.11 70.3856 393.186 70.6841 393.336 70.9438C393.491 71.2036 393.655 71.4064 393.828 71.5522C394.001 71.6935 394.118 71.7642 394.177 71.7642C394.209 71.7642 394.245 71.7619 394.286 71.7573C394.327 71.7528 394.37 71.7437 394.416 71.73L397.308 71.0396V72.2837C396.743 72.4569 396.198 72.6073 395.674 72.7349C395.154 72.8625 394.648 72.9696 394.156 73.0562C393.669 73.1382 393.188 73.1997 392.714 73.2407C392.24 73.2817 391.766 73.3022 391.292 73.3022H390.561V72.0581H392.645ZM402.033 71.8872C402.375 71.7915 402.678 71.6457 402.942 71.4497C403.211 71.2492 403.423 70.9598 403.578 70.5815C403.733 70.1987 403.81 69.6838 403.81 69.0366V63.8208H404.979V69.3989C404.979 69.8364 405.004 70.2215 405.054 70.5542C405.104 70.8823 405.182 71.158 405.287 71.3813C405.396 71.6047 405.54 71.7733 405.717 71.8872C405.9 72.0011 406.121 72.0581 406.381 72.0581H406.62V73.3022H406.36C405.954 73.3022 405.61 73.2362 405.328 73.104C405.05 72.9718 404.822 72.7827 404.644 72.5366C404.471 72.286 404.334 71.9852 404.234 71.6343C403.979 72.008 403.642 72.3201 403.222 72.5708C402.808 72.8169 402.325 73.0015 401.773 73.1245C401.222 73.243 400.618 73.3022 399.962 73.3022C399.775 73.3022 399.583 73.2977 399.387 73.2886C399.191 73.2795 398.993 73.2658 398.793 73.2476V72.0718C399.075 72.09 399.314 72.106 399.51 72.1196C399.706 72.1287 399.902 72.1333 400.098 72.1333C400.285 72.1333 400.447 72.1333 400.584 72.1333C400.725 72.1287 400.841 72.1174 400.932 72.0991C400.932 72.0991 400.91 71.9647 400.864 71.6958C400.823 71.4269 400.755 71.0532 400.659 70.5747C400.563 70.0962 400.433 69.5448 400.269 68.9204C400.105 68.2915 399.902 67.617 399.661 66.897C399.419 66.1769 399.132 65.4409 398.799 64.689L399.859 64.1968C400.187 64.9715 400.472 65.7326 400.714 66.48C400.96 67.2274 401.167 67.9269 401.336 68.5786C401.504 69.2303 401.639 69.8045 401.739 70.3013C401.844 70.798 401.919 71.1877 401.965 71.4702C402.01 71.7482 402.033 71.8872 402.033 71.8872ZM412.384 69.0366C412.115 69.0366 411.837 69.1004 411.55 69.228C411.268 69.3511 410.976 69.5402 410.675 69.7954C410.379 70.0461 410.076 70.3605 409.766 70.7388C409.461 71.117 409.148 71.5568 408.829 72.0581H409.937C410.589 72.0581 411.156 72.0262 411.639 71.9624C412.122 71.8986 412.523 71.8006 412.842 71.6685C413.161 71.5363 413.4 71.3677 413.56 71.1626C413.719 70.9575 413.799 70.7137 413.799 70.4312C413.799 70.0301 413.669 69.6974 413.41 69.4331C413.15 69.1688 412.808 69.0366 412.384 69.0366ZM407.585 72.0581C407.672 71.9123 407.761 71.771 407.852 71.6343C407.943 71.493 408.032 71.3517 408.119 71.2104V63.8208H409.287V69.5698C409.534 69.2736 409.78 69.0161 410.026 68.7974C410.272 68.5741 410.52 68.3895 410.771 68.2437C411.022 68.0978 411.274 67.9884 411.53 67.9155C411.789 67.8381 412.051 67.7993 412.316 67.7993C412.854 67.7993 413.323 67.9087 413.724 68.1274C414.13 68.3462 414.444 68.6493 414.667 69.0366C414.895 69.4194 415.009 69.8615 415.009 70.3628C415.005 70.8595 414.897 71.2925 414.688 71.6616C414.478 72.0308 414.164 72.3384 413.744 72.5845C413.325 72.826 412.801 73.006 412.172 73.1245C411.543 73.243 410.807 73.3022 409.964 73.3022H406.437V72.0581H407.585ZM417.957 63.8208V73.2954H416.788V63.8208H417.957ZM427.203 76.6929C426.355 76.6929 425.664 76.5402 425.131 76.2349C424.598 75.9341 424.206 75.5125 423.955 74.9702C423.705 74.4279 423.579 73.799 423.579 73.0835C423.579 72.6004 423.63 72.106 423.73 71.6001C423.83 71.0897 423.967 70.5929 424.14 70.1099L425.227 70.5474C425.095 70.9666 424.983 71.3973 424.892 71.8394C424.801 72.2814 424.755 72.7098 424.755 73.1245C424.755 73.6167 424.837 74.036 425.001 74.3823C425.165 74.7332 425.425 74.9998 425.781 75.1821C426.141 75.369 426.615 75.4624 427.203 75.4624C427.745 75.4624 428.198 75.3644 428.563 75.1685C428.927 74.9725 429.201 74.6649 429.383 74.2456C429.57 73.8309 429.663 73.2931 429.663 72.6323V63.8208H430.832V70.5063C430.832 71.0168 430.924 71.4041 431.106 71.6685C431.293 71.9282 431.662 72.0581 432.213 72.0581H432.412V73.3022H432.227C431.963 73.3022 431.751 73.2863 431.591 73.2544C431.436 73.2179 431.302 73.161 431.188 73.0835C431.079 73.006 430.958 72.9058 430.826 72.7827C430.826 73.4344 430.746 74.0041 430.586 74.4917C430.431 74.9839 430.201 75.3918 429.896 75.7153C429.591 76.0435 429.212 76.2873 428.761 76.4468C428.31 76.6108 427.79 76.6929 427.203 76.6929ZM432.215 72.0581H433.247V73.3022H432.215V72.0581ZM435.148 74.3892L436.105 75.3394L435.148 76.3032L434.197 75.3394L435.148 74.3892ZM432.878 74.3892L433.835 75.3394L432.878 76.3032L431.928 75.3394L432.878 74.3892ZM435.271 69.1255L436.412 68.9888L436.522 70.5884C436.54 70.88 436.604 71.1375 436.713 71.3608C436.822 71.5796 436.975 71.7505 437.171 71.8735C437.371 71.9966 437.618 72.0581 437.909 72.0581H438.046V73.3022H437.896C437.558 73.3022 437.267 73.2612 437.021 73.1792C436.774 73.0972 436.565 72.9787 436.392 72.8237C436.218 72.6688 436.07 72.4797 435.947 72.2563C435.701 72.6164 435.378 72.8807 434.977 73.0493C434.576 73.2179 434.156 73.3022 433.719 73.3022H433.076V72.0581H433.719C434.298 72.0581 434.71 71.9054 434.956 71.6001C435.207 71.2948 435.332 70.8732 435.332 70.3354C435.332 70.1167 435.325 69.9093 435.312 69.7134C435.302 69.5174 435.289 69.3215 435.271 69.1255ZM438.15 73.3022H437.863V72.0581H438.116C438.421 72.0581 438.679 71.9715 438.888 71.7983C439.098 71.6206 439.285 71.3927 439.449 71.1147C439.613 70.8368 439.775 70.5428 439.934 70.2329C440.098 69.9185 440.281 69.6222 440.481 69.3442C440.682 69.0662 440.923 68.8407 441.206 68.6675C441.493 68.4897 441.846 68.4009 442.265 68.4009C442.744 68.4009 443.149 68.5011 443.482 68.7017C443.815 68.9022 444.084 69.1733 444.289 69.5151C444.494 69.8569 444.642 70.2443 444.733 70.6772C444.797 70.9735 444.888 71.2264 445.007 71.436C445.125 71.6411 445.266 71.7961 445.43 71.9009C445.594 72.0057 445.774 72.0581 445.97 72.0581H446.148V73.3022H445.964C445.672 73.3022 445.387 73.243 445.109 73.1245C444.831 73.0015 444.606 72.8078 444.432 72.5435C444.241 72.8215 444.004 73.0448 443.721 73.2134C443.439 73.3774 443.072 73.4595 442.621 73.4595C442.316 73.4595 442.028 73.4139 441.76 73.3228C441.491 73.2362 441.226 73.104 440.967 72.9263C440.707 72.7485 440.438 72.5275 440.16 72.2632C439.964 72.4865 439.775 72.6756 439.593 72.8306C439.41 72.9855 439.207 73.104 438.984 73.186C438.761 73.2635 438.483 73.3022 438.15 73.3022ZM442.293 69.6108C442.065 69.6108 441.858 69.6883 441.671 69.8433C441.484 69.9937 441.315 70.1896 441.165 70.4312C441.014 70.6727 440.88 70.9233 440.761 71.1831C440.912 71.3381 441.062 71.4771 441.213 71.6001C441.363 71.7231 441.509 71.828 441.65 71.9146C441.837 72.0285 442.01 72.1128 442.17 72.1675C442.334 72.2222 442.48 72.2495 442.607 72.2495C442.949 72.2495 443.202 72.1629 443.366 71.9897C443.535 71.8166 443.619 71.5636 443.619 71.231C443.619 70.757 443.5 70.3696 443.263 70.0688C443.031 69.7635 442.707 69.6108 442.293 69.6108ZM447.585 66.6714C447.895 66.8901 448.198 67.1066 448.495 67.3208C448.795 67.535 449.082 67.7537 449.356 67.9771C449.634 68.1958 449.891 68.4282 450.128 68.6743C450.37 68.9159 450.586 69.1779 450.778 69.4604C450.974 69.7384 451.14 70.0415 451.277 70.3696C451.441 70.7616 451.605 71.0828 451.769 71.3335C451.938 71.5796 452.134 71.7619 452.357 71.8804C452.58 71.9989 452.854 72.0581 453.177 72.0581H453.369V73.3022H453.177C452.671 73.3022 452.241 73.2043 451.885 73.0083C451.534 72.8123 451.22 72.5002 450.942 72.0718C450.76 72.3407 450.536 72.5662 450.272 72.7485C450.012 72.9308 449.67 73.0698 449.247 73.1655C448.827 73.2567 448.283 73.3022 447.613 73.3022H445.958V72.0581H447.606C448.198 72.0581 448.675 72.0262 449.035 71.9624C449.399 71.894 449.663 71.7756 449.828 71.6069C449.996 71.4338 450.08 71.1922 450.08 70.8823C450.08 70.6408 450.01 70.4038 449.869 70.1714C449.732 69.939 449.545 69.7111 449.308 69.4878C449.076 69.2599 448.816 69.0366 448.529 68.8179C448.242 68.5991 447.945 68.3826 447.64 68.1685C447.339 67.9497 447.054 67.7332 446.786 67.519C446.64 67.4006 446.526 67.2752 446.444 67.1431C446.362 67.0063 446.321 66.8605 446.321 66.7056C446.321 66.5142 446.375 66.3228 446.485 66.1313C446.599 65.9399 446.761 65.8009 446.97 65.7144L451.885 63.7183V64.9282L447.585 66.6714ZM453.165 72.0581H453.965V73.3022H453.165V72.0581ZM456.515 65.1743L457.472 66.1245L456.515 67.0884L455.565 66.1245L456.515 65.1743ZM454.245 65.1743L455.202 66.1245L454.245 67.0884L453.295 66.1245L454.245 65.1743ZM454.573 73.3022H453.821V72.0581H454.56C455.17 72.0581 455.578 71.9259 455.783 71.6616C455.993 71.3927 456.098 71.0304 456.098 70.5747C456.098 70.3195 456.073 70.0028 456.023 69.6245C455.972 69.2463 455.895 68.8703 455.79 68.4966L456.959 68.1821C457.068 68.5422 457.146 68.9295 457.192 69.3442C457.237 69.759 457.26 70.1326 457.26 70.4653C457.26 71.0122 457.185 71.4998 457.034 71.9282C456.888 72.3521 456.622 72.687 456.234 72.9331C455.847 73.1792 455.293 73.3022 454.573 73.3022Z" fill="#00C9AF"/>
<path d="M779.393 66.5962L780.35 67.5464L779.393 68.5103L778.442 67.5464L779.393 66.5962ZM777.123 66.5962L778.08 67.5464L777.123 68.5103L776.173 67.5464L777.123 66.5962ZM782.387 69.1255L783.528 68.9888L783.645 70.6021C783.672 71.035 783.797 71.3859 784.021 71.6548C784.244 71.9237 784.577 72.0581 785.019 72.0581H785.169V73.3022H785.019C784.504 73.3022 784.08 73.2065 783.747 73.0151C783.419 72.8192 783.148 72.507 782.934 72.0786C782.683 72.3703 782.387 72.6073 782.045 72.7896C781.703 72.9673 781.288 73.0972 780.801 73.1792C780.313 73.2612 779.721 73.3022 779.023 73.3022H777.882C777.021 73.3022 776.266 73.2362 775.619 73.104C774.977 72.9718 774.439 72.7713 774.006 72.5024C773.578 72.2336 773.254 71.8918 773.035 71.4771C772.821 71.0578 772.714 70.561 772.714 69.9868C772.714 69.6724 772.748 69.3647 772.816 69.064C772.889 68.7632 772.983 68.4738 773.097 68.1958L774.156 68.5923C774.083 68.7928 774.022 69.007 773.972 69.2349C773.926 69.4627 773.903 69.6792 773.903 69.8843C773.903 70.2853 773.988 70.6248 774.156 70.9028C774.325 71.1763 774.573 71.3996 774.901 71.5728C775.234 71.7414 775.649 71.8644 776.146 71.9419C776.642 72.0194 777.221 72.0581 777.882 72.0581H779.023C779.748 72.0581 780.363 71.9989 780.869 71.8804C781.38 71.7619 781.769 71.5796 782.038 71.3335C782.307 71.0828 782.441 70.7593 782.441 70.3628C782.441 70.1759 782.435 69.9686 782.421 69.7407C782.407 69.5129 782.396 69.3078 782.387 69.1255ZM789.41 64.4155L790.401 65.4067L789.41 66.3979L788.419 65.4067L789.41 64.4155ZM785.165 72.0581H786.313C787.029 72.0581 787.699 71.9647 788.323 71.7778C788.952 71.5864 789.574 71.3381 790.189 71.0327C790.809 70.7274 791.459 70.397 792.138 70.0415C791.964 69.9777 791.816 69.9207 791.693 69.8706C791.575 69.8205 791.447 69.7658 791.31 69.7065C791.174 69.6427 790.994 69.5675 790.77 69.481C790.447 69.3488 790.162 69.2349 789.916 69.1392C789.67 69.0435 789.458 68.9705 789.28 68.9204C789.102 68.8657 788.954 68.8384 788.836 68.8384C788.558 68.8384 788.289 68.9204 788.029 69.0845C787.774 69.244 787.558 69.4377 787.38 69.6655L787.195 69.8979L786.149 69.3853L786.252 69.2212C786.553 68.7336 786.924 68.3439 787.366 68.0522C787.813 67.756 788.305 67.6079 788.843 67.6079C789.139 67.6079 789.467 67.6717 789.827 67.7993C790.192 67.9224 790.586 68.0864 791.01 68.2915C791.379 68.4692 791.714 68.6242 792.015 68.7563C792.315 68.8885 792.591 68.9979 792.842 69.0845C793.097 69.1711 793.336 69.2371 793.559 69.2827C793.783 69.3283 793.997 69.3579 794.202 69.3716V70.5542C794.011 70.577 793.794 70.6294 793.553 70.7114C793.311 70.7935 793.022 70.9142 792.684 71.0737C792.347 71.2332 791.937 71.4406 791.454 71.6958C790.871 72.0057 790.306 72.2814 789.759 72.5229C789.216 72.7645 788.663 72.9559 788.098 73.0972C787.537 73.2339 786.935 73.3022 786.293 73.3022H785.165V72.0581ZM797.247 63.8208V73.2954H796.078V63.8208H797.247ZM800.756 72.0718C801.349 72.0718 801.839 72.0216 802.226 71.9214C802.614 71.8166 802.903 71.6639 803.094 71.4634C803.286 71.2629 803.381 71.0122 803.381 70.7114C803.381 70.4243 803.286 70.1281 803.094 69.8228C802.903 69.5174 802.6 69.1984 802.185 68.8657C801.77 68.5285 801.226 68.1753 800.551 67.8062L801.091 66.7261C801.675 67.0269 802.183 67.3345 802.616 67.6489C803.053 67.9634 803.413 68.2869 803.696 68.6196C803.983 68.9523 804.197 69.2918 804.338 69.6382C804.48 69.98 804.55 70.3309 804.55 70.6909C804.55 71.2606 804.42 71.7391 804.161 72.1265C803.901 72.5138 803.5 72.8055 802.958 73.0015C802.415 73.1929 801.716 73.2886 800.859 73.2886C800.563 73.2886 800.273 73.2749 799.991 73.2476C799.713 73.2202 799.451 73.1792 799.205 73.1245V71.8872C799.501 71.9465 799.777 71.992 800.032 72.0239C800.292 72.0558 800.533 72.0718 800.756 72.0718ZM809.673 73.3022C809.359 73.3022 809.094 73.2612 808.88 73.1792C808.671 73.0926 808.507 73.0015 808.388 72.9058C808.32 73.5028 808.153 74.0793 807.889 74.6353C807.629 75.1958 807.237 75.6834 806.713 76.0981C806.189 76.5129 805.497 76.8045 804.635 76.9731L804.232 75.8931C804.975 75.7336 805.567 75.4897 806.009 75.1616C806.451 74.8381 806.77 74.4484 806.966 73.9927C807.167 73.5369 807.267 73.0334 807.267 72.4819C807.267 72.0946 807.224 71.689 807.137 71.2651C807.055 70.8368 806.939 70.4015 806.789 69.9595L807.923 69.5767L808.292 71.0054C808.393 71.3882 808.552 71.6593 808.771 71.8188C808.99 71.9784 809.265 72.0581 809.598 72.0581H809.851V73.3022H809.673ZM809.826 72.0581H810.859V73.3022H809.826V72.0581ZM811.44 73.3022H810.688V72.0581H811.426C812.037 72.0581 812.445 71.9259 812.65 71.6616C812.859 71.3927 812.964 71.0304 812.964 70.5747C812.964 70.3195 812.939 70.0028 812.889 69.6245C812.839 69.2463 812.761 68.8703 812.657 68.4966L813.825 68.1821C813.935 68.5422 814.012 68.9295 814.058 69.3442C814.103 69.759 814.126 70.1326 814.126 70.4653C814.126 71.0122 814.051 71.4998 813.901 71.9282C813.755 72.3521 813.488 72.687 813.101 72.9331C812.713 73.1792 812.16 73.3022 811.44 73.3022ZM811.597 75.8931L812.52 76.8159L811.597 77.7388L810.674 76.8159L811.597 75.8931ZM812.766 74.1636L813.689 75.0864L812.766 76.0093L811.843 75.0864L812.766 74.1636ZM810.428 74.1636L811.351 75.0864L810.428 76.0093L809.505 75.0864L810.428 74.1636Z" fill="#E7E1DA"/>
<circle cx="38.2422" cy="24.6343" r="23.7786" fill="#00C9AF"/>
<path d="M37.7473 33.5513C42.9456 33.5513 47.1597 29.3372 47.1597 24.1389C47.1597 18.9406 42.9456 14.7266 37.7473 14.7266C32.549 14.7266 28.335 18.9406 28.335 24.1389C28.335 29.3372 32.549 33.5513 37.7473 33.5513Z" stroke="white" stroke-width="1.5" stroke-linecap="round" stroke-linejoin="round"/>
<path d="M48.1505 34.5421L46.1689 32.5605" stroke="white" stroke-width="1.5" stroke-linecap="round" stroke-linejoin="round"/>
<circle cx="415.731" cy="24.6343" r="23.7786" fill="#00C9AF"/>
<path d="M415.731 25.3775C412.591 25.3775 410.034 22.8213 410.034 19.6806C410.034 16.5398 412.591 13.9836 415.731 13.9836C418.872 13.9836 421.428 16.5398 421.428 19.6806C421.428 22.8213 418.872 25.3775 415.731 25.3775ZM415.731 15.4698C413.413 15.4698 411.521 17.3622 411.521 19.6806C411.521 21.999 413.413 23.8914 415.731 23.8914C418.05 23.8914 419.942 21.999 419.942 19.6806C419.942 17.3622 418.05 15.4698 415.731 15.4698Z" fill="white"/>
<path d="M424.242 35.2851C423.836 35.2851 423.499 34.9482 423.499 34.542C423.499 31.1239 420.012 28.3497 415.731 28.3497C411.451 28.3497 407.964 31.1239 407.964 34.542C407.964 34.9482 407.627 35.2851 407.221 35.2851C406.814 35.2851 406.478 34.9482 406.478 34.542C406.478 30.3114 410.629 26.8635 415.731 26.8635C420.834 26.8635 424.985 30.3114 424.985 34.542C424.985 34.9482 424.648 35.2851 424.242 35.2851Z" fill="white"/>
<circle cx="793.212" cy="24.6343" r="23.7786" fill="#E7E1DA"/>
<path d="M785.218 29.2216C785.029 29.2216 784.841 29.1523 784.692 29.0037C784.405 28.7163 784.405 28.2408 784.692 27.9534L796.532 16.1137C796.819 15.8264 797.295 15.8264 797.582 16.1137C797.87 16.401 797.87 16.8766 797.582 17.1639L785.743 29.0136C785.604 29.1523 785.406 29.2216 785.218 29.2216Z" fill="white"/>
<path d="M792.321 31.5996C792.133 31.5996 791.945 31.5303 791.796 31.3816C791.509 31.0943 791.509 30.6187 791.796 30.3314L792.985 29.1425C793.272 28.8552 793.748 28.8552 794.035 29.1425C794.323 29.4298 794.323 29.9054 794.035 30.1927L792.846 31.3816C792.708 31.5204 792.519 31.5996 792.321 31.5996Z" fill="white"/>
<path d="M794.986 28.9344C794.798 28.9344 794.61 28.865 794.461 28.7164C794.174 28.4291 794.174 27.9535 794.461 27.6662L796.829 25.2983C797.117 25.0109 797.592 25.0109 797.88 25.2983C798.167 25.5856 798.167 26.0612 797.88 26.3485L795.512 28.7164C795.373 28.8551 795.175 28.9344 794.986 28.9344Z" fill="white"/>
<path d="M792.321 35.2852C791.35 35.2852 790.379 34.6908 789.2 33.5118L784.336 28.6471C781.968 26.2791 781.978 24.7533 784.365 22.3655L790.944 15.7868C793.332 13.399 794.858 13.3891 797.226 15.7571L802.09 20.6218C804.458 22.9897 804.448 24.5155 802.061 26.9033L795.482 33.482C794.283 34.6809 793.302 35.2852 792.321 35.2852ZM794.105 15.4698C793.59 15.4698 792.936 15.8958 791.994 16.837L785.416 23.4158C784.474 24.357 784.048 25.0109 784.048 25.5162C784.048 26.0314 784.445 26.6556 785.386 27.5968L790.251 32.4615C791.192 33.4028 791.806 33.7991 792.321 33.7991C792.321 33.7991 792.321 33.7991 792.331 33.7991C792.846 33.7991 793.49 33.373 794.432 32.4318L801.01 25.8531C801.952 24.9118 802.378 24.2579 802.378 23.7526C802.378 23.2374 801.981 22.6132 801.04 21.672L796.175 16.8073C795.244 15.8661 794.62 15.4698 794.105 15.4698Z" fill="white"/>
<path d="M803.121 35.2852H783.305C782.899 35.2852 782.562 34.9484 782.562 34.5422C782.562 34.1359 782.899 33.7991 783.305 33.7991H803.121C803.527 33.7991 803.864 34.1359 803.864 34.5422C803.864 34.9484 803.527 35.2852 803.121 35.2852Z" fill="white"/>
</svg>
