<svg width="573" height="62" viewBox="0 0 573 62" fill="none" xmlns="http://www.w3.org/2000/svg">
<path d="M3.85316 45.4873C4.33363 45.4873 4.77016 45.5957 5.16273 45.8125C5.56117 46.0234 5.90688 46.3398 6.19984 46.7617C6.49281 47.1777 6.7184 47.6904 6.8766 48.2998C7.04066 48.9092 7.12856 49.6094 7.14027 50.4004H8.19496V52H6.99965C6.87074 52.6738 6.61293 53.3242 6.22621 53.9512C5.84535 54.584 5.27699 55.1406 4.52113 55.6211C3.76527 56.1074 2.76332 56.4707 1.51527 56.7109L0.996719 55.3135C1.88148 55.1436 2.64027 54.9092 3.27309 54.6104C3.91176 54.3115 4.42445 53.9453 4.81117 53.5117C5.20375 53.0781 5.47035 52.5742 5.61098 52H4.22231C3.10902 52 2.27406 51.7773 1.71742 51.332C1.16664 50.8809 0.891251 50.2041 0.891251 49.3018C0.891251 48.8506 0.952774 48.3994 1.07582 47.9482C1.19887 47.4971 1.38344 47.0869 1.62953 46.7178C1.88148 46.3428 2.19203 46.0439 2.56117 45.8213C2.93031 45.5986 3.36098 45.4873 3.85316 45.4873ZM4.13441 50.4004H5.69008C5.65492 49.8379 5.59047 49.3486 5.49672 48.9326C5.40297 48.5107 5.27992 48.1621 5.12758 47.8867C4.97523 47.6113 4.79066 47.4062 4.57387 47.2715C4.35707 47.1367 4.10805 47.0693 3.8268 47.0693C3.4518 47.0693 3.1559 47.1982 2.9391 47.4561C2.72816 47.708 2.57875 48.0039 2.49086 48.3438C2.40883 48.6836 2.36781 48.9854 2.36781 49.249C2.36781 49.6592 2.50551 49.9551 2.7809 50.1367C3.06215 50.3125 3.51332 50.4004 4.13441 50.4004ZM14.4303 53.3447L15.7047 54.6191L14.4303 55.8936L13.1559 54.6191L14.4303 53.3447ZM8.41856 50.4004H9.89512C10.815 50.4004 11.6764 50.2803 12.4791 50.04C13.2877 49.7939 14.0875 49.4746 14.8785 49.082C15.6754 48.6895 16.5104 48.2646 17.3834 47.8076C17.1607 47.7256 16.9703 47.6523 16.8121 47.5879C16.6598 47.5234 16.4957 47.4531 16.3199 47.377C16.1441 47.2949 15.9127 47.1982 15.6256 47.0869C15.2096 46.917 14.8434 46.7705 14.527 46.6475C14.2105 46.5244 13.9381 46.4307 13.7096 46.3662C13.4811 46.2959 13.2906 46.2607 13.1383 46.2607C12.7809 46.2607 12.4352 46.3662 12.1012 46.5771C11.773 46.7822 11.4947 47.0312 11.2662 47.3242L11.0289 47.623L9.68418 46.9639L9.81602 46.7529C10.2027 46.126 10.6803 45.625 11.2486 45.25C11.8229 44.8691 12.4557 44.6787 13.1471 44.6787C13.5279 44.6787 13.9498 44.7607 14.4127 44.9248C14.8814 45.083 15.3883 45.2939 15.9332 45.5576C16.4078 45.7861 16.8385 45.9854 17.2252 46.1553C17.6119 46.3252 17.9664 46.4658 18.2887 46.5771C18.6168 46.6885 18.9244 46.7734 19.2115 46.832C19.4986 46.8906 19.774 46.9287 20.0377 46.9463V48.4668C19.7916 48.4961 19.5133 48.5635 19.2027 48.6689C18.8922 48.7744 18.5201 48.9297 18.0865 49.1348C17.6529 49.3398 17.1256 49.6064 16.5045 49.9346C15.7545 50.333 15.0279 50.6875 14.3248 50.998C13.6275 51.3086 12.9156 51.5547 12.1891 51.7363C11.4684 51.9121 10.6949 52 9.86875 52H8.41856V50.4004ZM33.853 50.4971C33.853 51.6338 33.6421 52.6211 33.2202 53.459C32.8042 54.3027 32.1773 54.9941 31.3394 55.5332C30.5073 56.0781 29.4673 56.4707 28.2193 56.7109L27.7007 55.3135C28.603 55.1377 29.3823 54.8887 30.0386 54.5664C30.7007 54.2441 31.228 53.8457 31.6206 53.3711C32.0132 52.9023 32.2564 52.3662 32.3501 51.7627C32.1275 51.833 31.8696 51.8945 31.5767 51.9473C31.2837 52 31.0259 52.0264 30.8032 52.0264C29.7486 52.0264 28.9488 51.8008 28.4038 51.3496C27.8648 50.8984 27.5952 50.2158 27.5952 49.3018C27.5952 48.8506 27.6568 48.3994 27.7798 47.9482C27.9087 47.4971 28.0962 47.0869 28.3423 46.7178C28.5884 46.3428 28.896 46.0439 29.2652 45.8213C29.6402 45.5986 30.0738 45.4873 30.5659 45.4873C31.146 45.4873 31.6411 45.6309 32.0513 45.918C32.4673 46.1992 32.8071 46.5801 33.0708 47.0605C33.3404 47.541 33.5366 48.0801 33.6597 48.6777C33.7886 49.2695 33.853 49.876 33.853 50.4971ZM30.8472 50.4355C31.0933 50.4355 31.3482 50.418 31.6118 50.3828C31.8755 50.3418 32.1333 50.2832 32.3853 50.207C32.356 49.7148 32.2945 49.2754 32.2007 48.8887C32.1128 48.502 31.9927 48.1738 31.8404 47.9043C31.688 47.6289 31.5034 47.4209 31.2866 47.2803C31.0757 47.1396 30.8296 47.0693 30.5484 47.0693C30.1616 47.0693 29.8599 47.1982 29.6431 47.4561C29.4321 47.708 29.2827 48.0039 29.1948 48.3438C29.1128 48.6836 29.0718 48.9854 29.0718 49.249C29.0718 49.6768 29.2183 49.9814 29.5113 50.1631C29.8042 50.3447 30.2495 50.4355 30.8472 50.4355ZM50.0942 43.3779L51.3246 44.5996L50.0942 45.8389L48.8725 44.5996L50.0942 43.3779ZM47.1762 43.3779L48.4067 44.5996L47.1762 45.8389L45.9545 44.5996L47.1762 43.3779ZM53.9438 46.6299L55.4116 46.4541L55.561 48.5283C55.5961 49.085 55.7573 49.5361 56.0444 49.8818C56.3315 50.2275 56.7592 50.4004 57.3276 50.4004H57.5209V52H57.3276C56.6655 52 56.1205 51.877 55.6928 51.6309C55.2709 51.3789 54.9223 50.9775 54.6469 50.4268C54.3246 50.8018 53.9438 51.1064 53.5043 51.3408C53.0649 51.5693 52.5317 51.7363 51.9047 51.8418C51.2778 51.9473 50.5161 52 49.6196 52H48.1518C47.0444 52 46.0746 51.915 45.2426 51.7451C44.4164 51.5752 43.725 51.3174 43.1684 50.9717C42.6176 50.626 42.2016 50.1865 41.9204 49.6533C41.645 49.1143 41.5073 48.4756 41.5073 47.7373C41.5073 47.333 41.5512 46.9375 41.6391 46.5508C41.7329 46.1641 41.853 45.792 41.9995 45.4346L43.3618 45.9443C43.268 46.2021 43.1889 46.4775 43.1245 46.7705C43.0659 47.0635 43.0366 47.3418 43.0366 47.6055C43.0366 48.1211 43.145 48.5576 43.3618 48.915C43.5786 49.2666 43.8979 49.5537 44.3198 49.7764C44.7475 49.9932 45.2807 50.1514 45.9194 50.251C46.558 50.3506 47.3022 50.4004 48.1518 50.4004H49.6196C50.5512 50.4004 51.3422 50.3242 51.9926 50.1719C52.6489 50.0195 53.1498 49.7852 53.4955 49.4688C53.8413 49.1465 54.0141 48.7305 54.0141 48.2207C54.0141 47.9805 54.0053 47.7139 53.9877 47.4209C53.9702 47.1279 53.9555 46.8643 53.9438 46.6299ZM68.5551 52C67.9926 52 67.5297 51.8828 67.1664 51.6484C66.809 51.4141 66.5219 51.083 66.3051 50.6553C65.977 51.1299 65.5902 51.4727 65.1449 51.6836C64.6996 51.8945 64.2426 52 63.7738 52C63.1 52 62.5785 51.8857 62.2094 51.6572C61.8461 51.4229 61.5561 51.0889 61.3393 50.6553C61.0639 51.0889 60.6977 51.4229 60.2406 51.6572C59.7836 51.8857 59.1596 52 58.3686 52H57.7533V50.4004H58.3861C59.1361 50.4004 59.6986 50.2305 60.0736 49.8906C60.4486 49.5449 60.6361 49.0029 60.6361 48.2646C60.6361 48.1592 60.6332 48.0508 60.6273 47.9395C60.6215 47.8281 60.6127 47.6904 60.601 47.5264C60.5893 47.3623 60.5717 47.1572 60.5482 46.9111L62.016 46.7266L62.1566 48.5195C62.1801 48.8477 62.2533 49.1553 62.3764 49.4424C62.5053 49.7295 62.6869 49.9609 62.9213 50.1367C63.1557 50.3125 63.4457 50.4004 63.7914 50.4004C64.4125 50.4004 64.8549 50.2012 65.1186 49.8027C65.3881 49.4043 65.5229 48.8916 65.5229 48.2646C65.5229 48.1592 65.5199 48.0508 65.5141 47.9395C65.5082 47.8223 65.4994 47.6846 65.4877 47.5264C65.476 47.3623 65.4584 47.1572 65.435 46.9111L66.9027 46.7266L67.0434 48.5195C67.0668 48.8359 67.1313 49.1377 67.2367 49.4248C67.348 49.7119 67.5092 49.9463 67.7201 50.1279C67.9369 50.3096 68.2123 50.4004 68.5463 50.4004C68.8393 50.4004 69.0795 50.3125 69.267 50.1367C69.4604 49.9609 69.6039 49.7148 69.6977 49.3984C69.7973 49.0762 69.8471 48.7041 69.8471 48.2822C69.8471 48.0713 69.8383 47.8516 69.8207 47.623C69.809 47.3945 69.7885 47.0928 69.7592 46.7178L71.227 46.542L71.3676 48.5195C71.391 48.8945 71.473 49.2227 71.6137 49.5039C71.7543 49.7852 71.9477 50.0049 72.1938 50.1631C72.4457 50.3213 72.7504 50.4004 73.1078 50.4004H73.3539V52H73.1254C72.5102 52 71.9975 51.8887 71.5873 51.666C71.1772 51.4375 70.8959 51.0977 70.7436 50.6465C70.4975 51.0801 70.2133 51.4141 69.891 51.6484C69.5746 51.8828 69.1293 52 68.5551 52ZM79.598 53.3447L80.8724 54.6191L79.598 55.8936L78.3236 54.6191L79.598 53.3447ZM73.5863 50.4004H75.0629C75.9828 50.4004 76.8441 50.2803 77.6468 50.04C78.4554 49.7939 79.2552 49.4746 80.0462 49.082C80.8431 48.6895 81.6781 48.2646 82.5511 47.8076C82.3285 47.7256 82.138 47.6523 81.9798 47.5879C81.8275 47.5234 81.6634 47.4531 81.4877 47.377C81.3119 47.2949 81.0804 47.1982 80.7933 47.0869C80.3773 46.917 80.0111 46.7705 79.6947 46.6475C79.3783 46.5244 79.1058 46.4307 78.8773 46.3662C78.6488 46.2959 78.4584 46.2607 78.306 46.2607C77.9486 46.2607 77.6029 46.3662 77.2689 46.5771C76.9408 46.7822 76.6625 47.0312 76.4339 47.3242L76.1966 47.623L74.8519 46.9639L74.9837 46.7529C75.3705 46.126 75.848 45.625 76.4164 45.25C76.9906 44.8691 77.6234 44.6787 78.3148 44.6787C78.6957 44.6787 79.1175 44.7607 79.5804 44.9248C80.0492 45.083 80.556 45.2939 81.1009 45.5576C81.5755 45.7861 82.0062 45.9854 82.3929 46.1553C82.7796 46.3252 83.1341 46.4658 83.4564 46.5771C83.7845 46.6885 84.0921 46.7734 84.3793 46.832C84.6664 46.8906 84.9418 46.9287 85.2054 46.9463V48.4668C84.9593 48.4961 84.681 48.5635 84.3705 48.6689C84.0599 48.7744 83.6879 48.9297 83.2543 49.1348C82.8207 49.3398 82.2933 49.6064 81.6722 49.9346C80.9222 50.333 80.1957 50.6875 79.4925 50.998C78.7953 51.3086 78.0834 51.5547 77.3568 51.7363C76.6361 51.9121 75.8627 52 75.0365 52H73.5863V50.4004Z" fill="#00C9AF"/>
<path d="M246.857 55H244.985C243.878 55 242.908 54.915 242.076 54.7451C241.25 54.5752 240.558 54.3174 240.002 53.9717C239.451 53.626 239.035 53.1865 238.754 52.6533C238.478 52.1143 238.341 51.4756 238.341 50.7373C238.341 50.333 238.384 49.9375 238.472 49.5508C238.566 49.1641 238.686 48.792 238.833 48.4346L240.195 48.9443C240.101 49.2021 240.022 49.4775 239.958 49.7705C239.899 50.0635 239.87 50.3418 239.87 50.6055C239.87 51.1211 239.978 51.5576 240.195 51.915C240.412 52.2666 240.731 52.5537 241.153 52.7764C241.581 52.9932 242.114 53.1514 242.753 53.251C243.391 53.3506 244.135 53.4004 244.985 53.4004H246.866C247.235 53.4004 247.645 53.3887 248.096 53.3652C248.548 53.3359 248.981 53.2656 249.397 53.1543C249.819 53.0371 250.165 52.8467 250.434 52.583C250.704 52.3193 250.839 51.9531 250.839 51.4844C250.839 51.209 250.803 50.8193 250.733 50.3154C250.663 49.8115 250.563 49.3193 250.434 48.8389L251.937 48.4346C252.037 48.7393 252.116 49.0908 252.175 49.4893C252.233 49.8818 252.274 50.251 252.298 50.5967C252.327 50.9365 252.342 51.1826 252.342 51.335C252.342 52.1084 252.189 52.7354 251.884 53.2158C251.586 53.6963 251.176 54.0654 250.654 54.3232C250.138 54.5811 249.552 54.7598 248.896 54.8594C248.24 54.9531 247.56 55 246.857 55ZM246.866 46.3779L248.096 47.5996L246.866 48.8389L245.644 47.5996L246.866 46.3779ZM243.948 46.3779L245.178 47.5996L243.948 48.8389L242.726 47.5996L243.948 46.3779ZM255.096 42.8096H256.599V51.2998C256.599 52.126 256.749 52.6826 257.048 52.9697C257.352 53.2568 257.812 53.4004 258.427 53.4004H258.638V55H258.427C257.308 55 256.473 54.7041 255.923 54.1123C255.372 53.5146 255.096 52.5742 255.096 51.291V42.8096ZM261.534 53.4004C261.358 53.1777 261.197 52.9229 261.05 52.6357C260.91 52.3486 260.796 52.0439 260.708 51.7217C260.626 51.3936 260.585 51.0713 260.585 50.7549C260.585 50.1279 260.749 49.5596 261.077 49.0498C261.405 48.54 261.836 48.1357 262.369 47.8369C262.902 47.5381 263.476 47.3887 264.091 47.3887C264.554 47.3887 265.035 47.4795 265.533 47.6611C266.037 47.8428 266.555 48.1152 267.089 48.4785L266.5 49.7881C266.054 49.5244 265.638 49.3252 265.252 49.1904C264.865 49.0498 264.51 48.9795 264.188 48.9795C263.831 48.9795 263.494 49.0557 263.177 49.208C262.867 49.3604 262.615 49.5742 262.422 49.8496C262.228 50.1191 262.131 50.4414 262.131 50.8164C262.131 51.25 262.228 51.6338 262.422 51.9678C262.621 52.3018 262.832 52.5625 263.054 52.75C263.277 52.9316 263.426 53.0225 263.503 53.0225C263.544 53.0225 263.59 53.0195 263.643 53.0137C263.696 53.0078 263.752 52.9961 263.81 52.9785L267.528 52.0908V53.6904C266.801 53.9131 266.101 54.1064 265.427 54.2705C264.759 54.4346 264.109 54.5723 263.476 54.6836C262.849 54.7891 262.231 54.8682 261.622 54.9209C261.012 54.9736 260.403 55 259.794 55H258.853V53.4004H261.534ZM274.053 53.1807C274.493 53.0576 274.882 52.8701 275.222 52.6182C275.568 52.3604 275.84 51.9883 276.04 51.502C276.239 51.0098 276.338 50.3477 276.338 49.5156V42.8096H277.841V49.9814C277.841 50.5439 277.874 51.0391 277.938 51.4668C278.003 51.8887 278.102 52.2432 278.237 52.5303C278.378 52.8174 278.562 53.0342 278.791 53.1807C279.025 53.3271 279.309 53.4004 279.643 53.4004H279.951V55H279.617C279.095 55 278.653 54.915 278.29 54.7451C277.932 54.5752 277.639 54.332 277.411 54.0156C277.188 53.6934 277.012 53.3066 276.883 52.8555C276.555 53.3359 276.122 53.7373 275.583 54.0596C275.049 54.376 274.428 54.6133 273.719 54.7715C273.01 54.9238 272.234 55 271.39 55C271.15 55 270.904 54.9941 270.652 54.9824C270.4 54.9707 270.145 54.9531 269.887 54.9297V53.418C270.251 53.4414 270.558 53.4619 270.81 53.4795C271.062 53.4912 271.314 53.4971 271.566 53.4971C271.806 53.4971 272.014 53.4971 272.19 53.4971C272.372 53.4912 272.521 53.4766 272.638 53.4531C272.638 53.4531 272.609 53.2803 272.55 52.9346C272.498 52.5889 272.41 52.1084 272.287 51.4932C272.164 50.8779 271.997 50.1689 271.786 49.3662C271.575 48.5576 271.314 47.6904 271.004 46.7646C270.693 45.8389 270.324 44.8926 269.896 43.9258L271.258 43.293C271.68 44.2891 272.046 45.2676 272.357 46.2285C272.673 47.1895 272.94 48.0889 273.157 48.9268C273.374 49.7646 273.546 50.5029 273.675 51.1416C273.81 51.7803 273.907 52.2812 273.965 52.6445C274.024 53.002 274.053 53.1807 274.053 53.1807ZM287.812 49.5156C287.466 49.5156 287.109 49.5977 286.74 49.7617C286.377 49.9199 286.002 50.1631 285.615 50.4912C285.234 50.8135 284.844 51.2178 284.446 51.7041C284.053 52.1904 283.652 52.7559 283.242 53.4004H284.666C285.503 53.4004 286.233 53.3594 286.854 53.2773C287.475 53.1953 287.991 53.0693 288.401 52.8994C288.811 52.7295 289.119 52.5127 289.324 52.249C289.529 51.9854 289.631 51.6719 289.631 51.3086C289.631 50.793 289.464 50.3652 289.13 50.0254C288.796 49.6855 288.357 49.5156 287.812 49.5156ZM281.642 53.4004C281.753 53.2129 281.868 53.0312 281.985 52.8555C282.102 52.6738 282.216 52.4922 282.328 52.3105V42.8096H283.831V50.2012C284.147 49.8203 284.463 49.4893 284.78 49.208C285.096 48.9209 285.416 48.6836 285.738 48.4961C286.06 48.3086 286.385 48.168 286.713 48.0742C287.047 47.9746 287.384 47.9248 287.724 47.9248C288.416 47.9248 289.019 48.0654 289.535 48.3467C290.056 48.6279 290.461 49.0176 290.748 49.5156C291.041 50.0078 291.187 50.5762 291.187 51.2207C291.181 51.8594 291.044 52.416 290.774 52.8906C290.504 53.3652 290.1 53.7607 289.561 54.0771C289.022 54.3877 288.348 54.6191 287.54 54.7715C286.731 54.9238 285.785 55 284.701 55H280.166V53.4004H281.642ZM295.427 42.8096V54.9912H293.924V42.8096H295.427ZM308.214 59.3594C307.124 59.3594 306.237 59.1631 305.551 58.7705C304.866 58.3838 304.362 57.8418 304.039 57.1445C303.717 56.4473 303.556 55.6387 303.556 54.7188C303.556 54.0977 303.621 53.4619 303.749 52.8115C303.878 52.1553 304.054 51.5166 304.277 50.8955L305.674 51.458C305.504 51.9971 305.361 52.5508 305.244 53.1191C305.126 53.6875 305.068 54.2383 305.068 54.7715C305.068 55.4043 305.173 55.9434 305.384 56.3887C305.595 56.8398 305.929 57.1826 306.386 57.417C306.849 57.6572 307.458 57.7773 308.214 57.7773C308.912 57.7773 309.495 57.6514 309.963 57.3994C310.432 57.1475 310.784 56.752 311.018 56.2129C311.258 55.6797 311.378 54.9883 311.378 54.1387V42.8096H312.881V51.4053C312.881 52.0615 312.998 52.5596 313.233 52.8994C313.473 53.2334 313.948 53.4004 314.657 53.4004H314.912V55H314.674C314.334 55 314.062 54.9795 313.857 54.9385C313.658 54.8916 313.485 54.8184 313.338 54.7188C313.198 54.6191 313.042 54.4902 312.872 54.332C312.872 55.1699 312.77 55.9023 312.565 56.5293C312.366 57.1621 312.07 57.6865 311.677 58.1025C311.285 58.5244 310.798 58.8379 310.218 59.043C309.638 59.2539 308.97 59.3594 308.214 59.3594ZM315.109 53.4004H316.436V55H315.109V53.4004ZM318.879 56.3975L320.11 57.6191L318.879 58.8584L317.658 57.6191L318.879 56.3975ZM315.961 56.3975L317.192 57.6191L315.961 58.8584L314.74 57.6191L315.961 56.3975ZM319.037 49.6299L320.505 49.4541L320.646 51.5107C320.669 51.8857 320.751 52.2168 320.892 52.5039C321.033 52.7852 321.229 53.0049 321.481 53.1631C321.739 53.3213 322.055 53.4004 322.43 53.4004H322.606V55H322.412C321.979 55 321.604 54.9473 321.287 54.8418C320.971 54.7363 320.702 54.584 320.479 54.3848C320.256 54.1855 320.066 53.9424 319.908 53.6553C319.591 54.1182 319.175 54.458 318.66 54.6748C318.144 54.8916 317.605 55 317.042 55H316.216V53.4004H317.042C317.787 53.4004 318.317 53.2041 318.633 52.8115C318.955 52.4189 319.117 51.877 319.117 51.1855C319.117 50.9043 319.108 50.6377 319.09 50.3857C319.079 50.1338 319.061 49.8818 319.037 49.6299ZM323.19 55H322.821V53.4004H323.146C323.538 53.4004 323.869 53.2891 324.139 53.0664C324.409 52.8379 324.649 52.5449 324.86 52.1875C325.071 51.8301 325.279 51.4521 325.484 51.0537C325.695 50.6494 325.929 50.2686 326.187 49.9111C326.445 49.5537 326.755 49.2637 327.119 49.041C327.488 48.8125 327.942 48.6982 328.481 48.6982C329.096 48.6982 329.618 48.8271 330.045 49.085C330.473 49.3428 330.819 49.6914 331.082 50.1309C331.346 50.5703 331.536 51.0684 331.654 51.625C331.736 52.0059 331.853 52.3311 332.005 52.6006C332.158 52.8643 332.339 53.0635 332.55 53.1982C332.761 53.333 332.993 53.4004 333.244 53.4004H333.473V55H333.236C332.861 55 332.494 54.9238 332.137 54.7715C331.78 54.6133 331.49 54.3643 331.267 54.0244C331.021 54.3818 330.716 54.6689 330.353 54.8857C329.99 55.0967 329.518 55.2021 328.938 55.2021C328.545 55.2021 328.176 55.1436 327.83 55.0264C327.485 54.915 327.145 54.7451 326.811 54.5166C326.477 54.2881 326.131 54.0039 325.774 53.6641C325.522 53.9512 325.279 54.1943 325.044 54.3936C324.81 54.5928 324.549 54.7451 324.262 54.8506C323.975 54.9502 323.618 55 323.19 55ZM328.516 50.2539C328.223 50.2539 327.956 50.3535 327.716 50.5527C327.476 50.7461 327.259 50.998 327.066 51.3086C326.872 51.6191 326.7 51.9414 326.547 52.2754C326.741 52.4746 326.934 52.6533 327.127 52.8115C327.321 52.9697 327.508 53.1045 327.69 53.2158C327.93 53.3623 328.153 53.4707 328.358 53.541C328.569 53.6113 328.756 53.6465 328.92 53.6465C329.36 53.6465 329.685 53.5352 329.896 53.3125C330.113 53.0898 330.221 52.7646 330.221 52.3369C330.221 51.7275 330.069 51.2295 329.764 50.8428C329.465 50.4502 329.049 50.2539 328.516 50.2539ZM335.771 46.4746C336.169 46.7559 336.559 47.0342 336.94 47.3096C337.326 47.585 337.696 47.8662 338.047 48.1533C338.405 48.4346 338.736 48.7334 339.04 49.0498C339.351 49.3604 339.629 49.6973 339.875 50.0605C340.127 50.418 340.341 50.8076 340.517 51.2295C340.728 51.7334 340.939 52.1465 341.15 52.4688C341.367 52.7852 341.618 53.0195 341.906 53.1719C342.193 53.3242 342.544 53.4004 342.96 53.4004H343.206V55H342.96C342.31 55 341.756 54.874 341.299 54.6221C340.848 54.3701 340.444 53.9688 340.086 53.418C339.852 53.7637 339.565 54.0537 339.225 54.2881C338.891 54.5225 338.451 54.7012 337.907 54.8242C337.368 54.9414 336.667 55 335.806 55H333.679V53.4004H335.797C336.559 53.4004 337.171 53.3594 337.634 53.2773C338.103 53.1895 338.443 53.0371 338.654 52.8203C338.87 52.5977 338.979 52.2871 338.979 51.8887C338.979 51.5781 338.888 51.2734 338.706 50.9746C338.531 50.6758 338.29 50.3828 337.986 50.0957C337.687 49.8027 337.353 49.5156 336.984 49.2344C336.615 48.9531 336.234 48.6748 335.841 48.3994C335.454 48.1182 335.088 47.8398 334.743 47.5645C334.555 47.4121 334.409 47.251 334.303 47.0811C334.198 46.9053 334.145 46.7178 334.145 46.5186C334.145 46.2725 334.215 46.0264 334.356 45.7803C334.502 45.5342 334.71 45.3555 334.98 45.2441L341.299 42.6777V44.2334L335.771 46.4746ZM343.395 53.4004H344.423V55H343.395V53.4004ZM347.701 44.5498L348.932 45.7715L347.701 47.0107L346.48 45.7715L347.701 44.5498ZM344.783 44.5498L346.014 45.7715L344.783 47.0107L343.562 45.7715L344.783 44.5498ZM345.205 55H344.239V53.4004H345.188C345.973 53.4004 346.497 53.2305 346.761 52.8906C347.031 52.5449 347.165 52.0791 347.165 51.4932C347.165 51.165 347.133 50.7578 347.069 50.2715C347.004 49.7852 346.905 49.3018 346.77 48.8213L348.273 48.417C348.413 48.8799 348.513 49.3779 348.572 49.9111C348.63 50.4443 348.659 50.9248 348.659 51.3525C348.659 52.0557 348.563 52.6826 348.369 53.2334C348.182 53.7783 347.839 54.209 347.341 54.5254C346.843 54.8418 346.131 55 345.205 55Z" fill="#E7E1DA"/>
<path d="M525.871 46.3779L527.101 47.5996L525.871 48.8389L524.649 47.5996L525.871 46.3779ZM522.953 46.3779L524.183 47.5996L522.953 48.8389L521.731 47.5996L522.953 46.3779ZM529.72 49.6299L531.188 49.4541L531.337 51.5283C531.373 52.085 531.534 52.5361 531.821 52.8818C532.108 53.2275 532.536 53.4004 533.104 53.4004H533.297V55H533.104C532.442 55 531.897 54.877 531.469 54.6309C531.047 54.3789 530.699 53.9775 530.423 53.4268C530.101 53.8018 529.72 54.1064 529.281 54.3408C528.841 54.5693 528.308 54.7363 527.681 54.8418C527.054 54.9473 526.293 55 525.396 55H523.928C522.821 55 521.851 54.915 521.019 54.7451C520.193 54.5752 519.502 54.3174 518.945 53.9717C518.394 53.626 517.978 53.1865 517.697 52.6533C517.421 52.1143 517.284 51.4756 517.284 50.7373C517.284 50.333 517.328 49.9375 517.416 49.5508C517.509 49.1641 517.629 48.792 517.776 48.4346L519.138 48.9443C519.045 49.2021 518.965 49.4775 518.901 49.7705C518.842 50.0635 518.813 50.3418 518.813 50.6055C518.813 51.1211 518.921 51.5576 519.138 51.915C519.355 52.2666 519.674 52.5537 520.096 52.7764C520.524 52.9932 521.057 53.1514 521.696 53.251C522.335 53.3506 523.079 53.4004 523.928 53.4004H525.396C526.328 53.4004 527.119 53.3242 527.769 53.1719C528.425 53.0195 528.926 52.7852 529.272 52.4688C529.618 52.1465 529.791 51.7305 529.791 51.2207C529.791 50.9805 529.782 50.7139 529.764 50.4209C529.747 50.1279 529.732 49.8643 529.72 49.6299ZM538.988 43.5742L540.262 44.8486L538.988 46.123L537.713 44.8486L538.988 43.5742ZM533.53 53.4004H535.006C535.926 53.4004 536.788 53.2803 537.59 53.04C538.399 52.7939 539.199 52.4746 539.99 52.082C540.787 51.6895 541.622 51.2646 542.495 50.8076C542.272 50.7256 542.082 50.6523 541.923 50.5879C541.771 50.5234 541.607 50.4531 541.431 50.377C541.255 50.2949 541.024 50.1982 540.737 50.0869C540.321 49.917 539.955 49.7705 539.638 49.6475C539.322 49.5244 539.049 49.4307 538.821 49.3662C538.592 49.2959 538.402 49.2607 538.25 49.2607C537.892 49.2607 537.546 49.3662 537.212 49.5771C536.884 49.7822 536.606 50.0312 536.378 50.3242L536.14 50.623L534.795 49.9639L534.927 49.7529C535.314 49.126 535.792 48.625 536.36 48.25C536.934 47.8691 537.567 47.6787 538.258 47.6787C538.639 47.6787 539.061 47.7607 539.524 47.9248C539.993 48.083 540.5 48.2939 541.044 48.5576C541.519 48.7861 541.95 48.9854 542.336 49.1553C542.723 49.3252 543.078 49.4658 543.4 49.5771C543.728 49.6885 544.036 49.7734 544.323 49.832C544.61 49.8906 544.885 49.9287 545.149 49.9463V51.4668C544.903 51.4961 544.625 51.5635 544.314 51.6689C544.003 51.7744 543.631 51.9297 543.198 52.1348C542.764 52.3398 542.237 52.6064 541.616 52.9346C540.866 53.333 540.139 53.6875 539.436 53.998C538.739 54.3086 538.027 54.5547 537.3 54.7363C536.58 54.9121 535.806 55 534.98 55H533.53V53.4004ZM549.301 42.8096V54.9912H547.798V42.8096H549.301ZM554.051 53.418C554.813 53.418 555.443 53.3535 555.941 53.2246C556.439 53.0898 556.811 52.8936 557.057 52.6357C557.303 52.3779 557.426 52.0557 557.426 51.6689C557.426 51.2998 557.303 50.9189 557.057 50.5264C556.811 50.1338 556.421 49.7236 555.888 49.2959C555.355 48.8623 554.655 48.4082 553.788 47.9336L554.482 46.5449C555.232 46.9316 555.885 47.3271 556.442 47.7314C557.004 48.1357 557.467 48.5518 557.831 48.9795C558.2 49.4072 558.475 49.8438 558.657 50.2891C558.838 50.7285 558.929 51.1797 558.929 51.6426C558.929 52.375 558.762 52.9902 558.428 53.4883C558.094 53.9863 557.579 54.3613 556.881 54.6133C556.184 54.8594 555.285 54.9824 554.183 54.9824C553.802 54.9824 553.43 54.9648 553.067 54.9297C552.709 54.8945 552.373 54.8418 552.056 54.7715V53.1807C552.437 53.2568 552.791 53.3154 553.12 53.3564C553.454 53.3975 553.764 53.418 554.051 53.418ZM565.753 55C565.349 55 565.009 54.9473 564.734 54.8418C564.464 54.7305 564.253 54.6133 564.101 54.4902C564.013 55.2578 563.799 55.999 563.459 56.7139C563.125 57.4346 562.622 58.0615 561.948 58.5947C561.274 59.1279 560.383 59.5029 559.276 59.7197L558.757 58.3311C559.712 58.126 560.474 57.8125 561.042 57.3906C561.611 56.9746 562.021 56.4736 562.273 55.8877C562.531 55.3018 562.66 54.6543 562.66 53.9453C562.66 53.4473 562.604 52.9258 562.493 52.3809C562.387 51.8301 562.238 51.2705 562.044 50.7021L563.503 50.21L563.978 52.0469C564.107 52.5391 564.312 52.8877 564.593 53.0928C564.874 53.2979 565.229 53.4004 565.657 53.4004H565.982V55H565.753ZM566.188 53.4004H567.515V55H566.188V53.4004ZM568.262 55H567.295V53.4004H568.245C569.03 53.4004 569.554 53.2305 569.818 52.8906C570.087 52.5449 570.222 52.0791 570.222 51.4932C570.222 51.165 570.19 50.7578 570.125 50.2715C570.061 49.7852 569.961 49.3018 569.827 48.8213L571.329 48.417C571.47 48.8799 571.57 49.3779 571.628 49.9111C571.687 50.4443 571.716 50.9248 571.716 51.3525C571.716 52.0557 571.62 52.6826 571.426 53.2334C571.239 53.7783 570.896 54.209 570.398 54.5254C569.9 54.8418 569.188 55 568.262 55ZM568.464 58.3311L569.651 59.5176L568.464 60.7041L567.278 59.5176L568.464 58.3311ZM569.967 56.1074L571.154 57.2939L569.967 58.4805L568.781 57.2939L569.967 56.1074ZM566.961 56.1074L568.148 57.2939L566.961 58.4805L565.775 57.2939L566.961 56.1074Z" fill="#E7E1DA"/>
<line x1="47" y1="15" x2="271" y2="15" stroke="#DFE0DF" stroke-width="2"/>
<line x1="301" y1="15" x2="525" y2="15" stroke="#E7E1DA" stroke-width="2"/>
<circle cx="32" cy="16" r="16" fill="#00C9AF"/>
<path d="M31.6666 21.9999C35.1644 21.9999 37.9999 19.1644 37.9999 15.6666C37.9999 12.1688 35.1644 9.33325 31.6666 9.33325C28.1688 9.33325 25.3333 12.1688 25.3333 15.6666C25.3333 19.1644 28.1688 21.9999 31.6666 21.9999Z" stroke="white" stroke-width="1.5" stroke-linecap="round" stroke-linejoin="round"/>
<path d="M38.6666 22.6666L37.3333 21.3333" stroke="white" stroke-width="1.5" stroke-linecap="round" stroke-linejoin="round"/>
<circle cx="286" cy="16" r="16" fill="#E7E1DA"/>
<path d="M286 16.4999C283.887 16.4999 282.167 14.7799 282.167 12.6666C282.167 10.5533 283.887 8.83325 286 8.83325C288.113 8.83325 289.833 10.5533 289.833 12.6666C289.833 14.7799 288.113 16.4999 286 16.4999ZM286 9.83325C284.44 9.83325 283.167 11.1066 283.167 12.6666C283.167 14.2266 284.44 15.4999 286 15.4999C287.56 15.4999 288.833 14.2266 288.833 12.6666C288.833 11.1066 287.56 9.83325 286 9.83325Z" fill="white"/>
<path d="M291.727 23.1667C291.453 23.1667 291.227 22.94 291.227 22.6667C291.227 20.3667 288.88 18.5 286 18.5C283.12 18.5 280.773 20.3667 280.773 22.6667C280.773 22.94 280.547 23.1667 280.273 23.1667C280 23.1667 279.773 22.94 279.773 22.6667C279.773 19.82 282.567 17.5 286 17.5C289.433 17.5 292.227 19.82 292.227 22.6667C292.227 22.94 292 23.1667 291.727 23.1667Z" fill="white"/>
<circle cx="540" cy="16" r="16" fill="#E7E1DA"/>
<path d="M534.62 19.0866C534.493 19.0866 534.367 19.0399 534.267 18.9399C534.073 18.7466 534.073 18.4266 534.267 18.2332L542.233 10.2666C542.427 10.0732 542.747 10.0732 542.94 10.2666C543.133 10.4599 543.133 10.7799 542.94 10.9732L534.973 18.9466C534.88 19.0399 534.747 19.0866 534.62 19.0866Z" fill="white"/>
<path d="M539.4 20.6868C539.273 20.6868 539.147 20.6401 539.047 20.5401C538.853 20.3468 538.853 20.0268 539.047 19.8334L539.847 19.0334C540.04 18.8401 540.36 18.8401 540.553 19.0334C540.747 19.2268 540.747 19.5468 540.553 19.7401L539.753 20.5401C539.66 20.6334 539.533 20.6868 539.4 20.6868Z" fill="white"/>
<path d="M541.193 18.8934C541.067 18.8934 540.94 18.8468 540.84 18.7468C540.647 18.5534 540.647 18.2334 540.84 18.0401L542.433 16.4468C542.627 16.2534 542.947 16.2534 543.14 16.4468C543.333 16.6401 543.333 16.9601 543.14 17.1534L541.547 18.7468C541.453 18.8401 541.32 18.8934 541.193 18.8934Z" fill="white"/>
<path d="M539.4 23.1667C538.747 23.1667 538.093 22.7667 537.3 21.9734L534.027 18.7C532.433 17.1067 532.44 16.08 534.047 14.4734L538.473 10.0467C540.08 8.44002 541.107 8.43336 542.7 10.0267L545.973 13.3C547.567 14.8934 547.56 15.92 545.953 17.5267L541.527 21.9534C540.72 22.76 540.06 23.1667 539.4 23.1667ZM540.6 9.83336C540.253 9.83336 539.813 10.12 539.18 10.7534L534.753 15.18C534.12 15.8134 533.833 16.2534 533.833 16.5934C533.833 16.94 534.1 17.36 534.733 17.9934L538.007 21.2667C538.64 21.9 539.053 22.1667 539.4 22.1667C539.4 22.1667 539.4 22.1667 539.407 22.1667C539.753 22.1667 540.187 21.88 540.82 21.2467L545.247 16.82C545.88 16.1867 546.167 15.7467 546.167 15.4067C546.167 15.06 545.9 14.64 545.267 14.0067L541.993 10.7334C541.367 10.1 540.947 9.83336 540.6 9.83336Z" fill="white"/>
<path d="M546.667 23.1667H533.333C533.06 23.1667 532.833 22.9401 532.833 22.6667C532.833 22.3934 533.06 22.1667 533.333 22.1667H546.667C546.94 22.1667 547.167 22.3934 547.167 22.6667C547.167 22.9401 546.94 23.1667 546.667 23.1667Z" fill="white"/>
</svg>
